<svg xmlns="http://www.w3.org/2000/svg" viewBox="0 0 512 512" fill="none"><g id="outline"><path fill="#6E3110" fill-rule="evenodd" d="M214.0,117.0 L203.0,117.0 L202.0,118.5 L201.0,120.0 L209.5,122.0 L218.0,124.0 L218.0,126.0 L218.0,128.0 L201.0,132.0 Q184.0,136.0 173.0,141.5 Q162.0,147.0 149.0,158.0 Q136.0,169.0 129.5,178.5 Q123.0,188.0 116.5,207.0 Q110.0,226.0 110.0,248.5 L110.0,271.0 L99.0,274.5 Q88.0,278.0 82.5,286.5 Q77.0,295.0 77.0,306.0 Q77.0,317.0 83.5,328.5 Q90.0,340.0 101.0,346.5 Q112.0,353.0 121.5,353.0 L131.0,353.0 L140.0,363.0 Q149.0,373.0 163.5,381.5 Q178.0,390.0 203.0,396.5 Q228.0,403.0 255.5,403.0 Q283.0,403.0 303.5,398.5 Q324.0,394.0 340.5,386.0 Q357.0,378.0 369.0,365.5 Q381.0,353.0 390.5,353.0 Q400.0,353.0 410.0,347.5 Q420.0,342.0 427.0,330.0 Q434.0,318.0 434.0,307.5 Q434.0,297.0 426.5,286.0 Q419.0,275.0 408.0,272.5 L397.0,270.0 L397.5,255.0 Q398.0,240.0 395.5,227.0 Q393.0,214.0 382.0,193.0 Q371.0,172.0 355.0,158.5 Q339.0,145.0 328.5,140.0 Q318.0,135.0 303.5,131.5 Q289.0,128.0 281.5,118.0 L274.0,108.0 L272.0,108.5 L270.0,109.0 L270.5,117.5 L271.0,126.0 L257.0,117.0 Q243.0,108.0 238.5,109.0 L234.0,110.0 L242.0,117.0 L250.0,124.0 L249.0,125.0 L248.0,126.0 L236.5,121.5 Q225.0,117.0 214.0,117.0 Z M89.5,312.5 L87.0,300.0 L94.0,291.0 L101.0,282.0 L112.5,284.0 L124.0,286.0 L121.5,275.0 Q119.0,264.0 121.0,240.0 Q123.0,216.0 128.0,204.0 Q133.0,192.0 145.5,177.5 Q158.0,163.0 179.5,152.0 Q201.0,141.0 230.5,137.5 Q260.0,134.0 289.0,140.0 Q318.0,146.0 329.5,152.5 Q341.0,159.0 351.0,168.0 Q361.0,177.0 367.0,185.5 Q373.0,194.0 379.5,210.5 Q386.0,227.0 387.5,241.0 Q389.0,255.0 386.0,270.5 L383.0,286.0 L392.5,283.0 Q402.0,280.0 406.5,281.0 Q411.0,282.0 417.0,289.0 Q423.0,296.0 424.0,303.5 Q425.0,311.0 422.5,318.0 Q420.0,325.0 414.0,331.5 Q408.0,338.0 397.5,341.0 L387.0,344.0 L388.0,328.5 L389.0,313.0 L400.0,308.0 L411.0,303.0 L409.0,301.0 L407.0,299.0 L397.0,301.0 Q387.0,303.0 384.0,306.0 Q381.0,309.0 380.0,319.5 Q379.0,330.0 374.0,340.5 Q369.0,351.0 359.5,360.5 Q350.0,370.0 340.0,375.5 Q330.0,381.0 306.5,387.0 Q283.0,393.0 261.0,393.5 Q239.0,394.0 217.5,390.0 Q196.0,386.0 178.0,377.0 Q160.0,368.0 150.0,357.0 Q140.0,346.0 135.0,327.0 Q130.0,308.0 124.5,304.5 Q119.0,301.0 109.0,302.0 L99.0,303.0 L111.0,308.5 L123.0,314.0 L125.0,328.0 L127.0,342.0 L124.5,343.5 L122.0,345.0 L115.5,343.0 Q109.0,341.0 100.5,333.0 Q92.0,325.0 89.5,312.5 Z"/></g><g id="hair"><path fill="#6E3110" fill-rule="evenodd" d="M263.0,145.0 Q262.0,144.0 261.5,144.0 L261.0,144.0 L261.0,148.5 Q261.0,153.0 260.5,153.5 Q260.0,154.0 260.0,156.0 Q260.0,158.0 259.5,158.5 Q259.0,159.0 258.5,161.5 Q258.0,164.0 255.5,168.0 Q253.0,172.0 253.0,173.0 L253.0,174.0 L254.5,174.0 Q256.0,174.0 258.0,173.0 Q260.0,172.0 262.0,169.5 Q264.0,167.0 264.5,165.0 Q265.0,163.0 265.5,162.5 Q266.0,162.0 266.0,156.0 Q266.0,150.0 265.0,148.0 Q264.0,146.0 263.0,145.0 Z"/><path fill="#6E3110" fill-rule="evenodd" d="M223.5,146.5 L223.0,146.0 L222.0,146.5 Q221.0,147.0 220.5,149.5 Q220.0,152.0 218.0,156.0 Q216.0,160.0 214.5,161.5 Q213.0,163.0 213.0,163.5 Q213.0,164.0 208.0,169.0 Q203.0,174.0 202.5,174.0 Q202.0,174.0 201.0,175.0 Q200.0,176.0 200.0,176.5 L200.0,177.0 L203.5,177.0 Q207.0,177.0 207.5,176.5 Q208.0,176.0 209.0,176.0 Q210.0,176.0 212.5,174.5 Q215.0,173.0 218.0,170.0 Q221.0,167.0 222.5,163.5 Q224.0,160.0 224.0,153.5 Q224.0,147.0 223.5,146.5 Z"/><path fill="#6E3110" fill-rule="evenodd" d="M244.0,149.5 Q243.0,148.0 242.0,148.0 L241.0,148.0 L240.5,151.5 Q240.0,155.0 238.5,158.0 Q237.0,161.0 237.0,162.0 Q237.0,163.0 236.0,164.0 Q235.0,165.0 234.0,167.0 Q233.0,169.0 229.0,173.0 Q225.0,177.0 224.5,177.0 L224.0,177.0 L224.0,178.0 L224.0,179.0 L226.5,179.0 Q229.0,179.0 229.5,178.5 Q230.0,178.0 231.5,178.0 Q233.0,178.0 235.0,177.0 Q237.0,176.0 239.5,173.5 Q242.0,171.0 243.5,167.5 Q245.0,164.0 245.0,157.5 Q245.0,151.0 244.0,149.5 Z"/></g><g id="brows"><path fill="#6E3110" fill-rule="evenodd" d="M299.5,245.0 Q299.0,246.0 299.0,247.0 L299.0,248.0 L300.5,248.0 Q302.0,248.0 302.5,247.5 Q303.0,247.0 304.5,247.0 Q306.0,247.0 308.0,246.0 Q310.0,245.0 315.0,244.5 Q320.0,244.0 320.5,244.5 Q321.0,245.0 323.0,245.0 Q325.0,245.0 325.5,245.5 Q326.0,246.0 329.0,246.5 Q332.0,247.0 336.0,249.5 Q340.0,252.0 342.0,252.0 L344.0,252.0 L344.0,250.5 Q344.0,249.0 341.5,246.0 Q339.0,243.0 337.5,242.5 Q336.0,242.0 335.0,241.0 Q334.0,240.0 333.0,240.0 Q332.0,240.0 330.0,239.0 Q328.0,238.0 319.5,238.0 Q311.0,238.0 307.5,239.5 Q304.0,241.0 302.5,242.5 Q301.0,244.0 300.5,244.0 L300.0,244.0 L299.5,245.0 Z"/><path fill="#6E3110" fill-rule="evenodd" d="M206.0,246.5 L206.0,245.0 L202.0,243.0 Q198.0,241.0 195.0,241.0 Q192.0,241.0 191.5,240.5 Q191.0,240.0 189.5,240.0 Q188.0,240.0 187.5,240.5 Q187.0,241.0 184.5,241.0 Q182.0,241.0 181.5,241.5 Q181.0,242.0 178.5,242.5 Q176.0,243.0 172.0,245.5 Q168.0,248.0 166.0,250.5 Q164.0,253.0 163.5,255.0 L163.0,257.0 L165.0,257.0 Q167.0,257.0 170.5,254.5 Q174.0,252.0 176.0,251.5 Q178.0,251.0 181.0,249.5 Q184.0,248.0 185.5,248.0 Q187.0,248.0 187.5,247.5 Q188.0,247.0 193.5,247.0 Q199.0,247.0 199.5,247.5 Q200.0,248.0 203.0,248.0 L206.0,248.0 L206.0,246.5 Z"/><path fill="#6E3110" fill-rule="evenodd" d="M167.5,285.5 Q165.0,288.0 165.0,289.5 L165.0,291.0 L167.5,291.0 Q170.0,291.0 170.5,290.5 Q171.0,290.0 175.0,289.5 Q179.0,289.0 179.5,288.5 Q180.0,288.0 181.5,288.0 Q183.0,288.0 184.0,289.0 L185.0,290.0 L184.0,291.0 Q183.0,292.0 182.0,292.0 Q181.0,292.0 178.0,293.5 Q175.0,295.0 173.5,296.5 Q172.0,298.0 171.5,299.0 Q171.0,300.0 171.0,302.5 L171.0,305.0 L172.5,305.0 Q174.0,305.0 177.5,303.0 Q181.0,301.0 182.0,301.0 Q183.0,301.0 186.5,299.5 Q190.0,298.0 192.5,298.0 Q195.0,298.0 195.5,297.5 Q196.0,297.0 200.0,297.0 Q204.0,297.0 204.5,297.5 Q205.0,298.0 207.0,298.0 Q209.0,298.0 209.5,298.5 Q210.0,299.0 211.5,299.0 Q213.0,299.0 213.5,299.5 Q214.0,300.0 216.5,300.0 L219.0,300.0 L219.0,298.0 Q219.0,296.0 217.5,293.0 Q216.0,290.0 213.5,287.5 Q211.0,285.0 206.0,282.5 Q201.0,280.0 199.0,280.0 Q197.0,280.0 196.5,279.5 Q196.0,279.0 188.5,279.0 Q181.0,279.0 180.5,279.5 Q180.0,280.0 178.5,280.0 Q177.0,280.0 173.5,281.5 Q170.0,283.0 167.5,285.5 Z"/></g><g id="eyes"><path fill="#6E3110" fill-rule="evenodd" d="M304.5,268.0 Q300.0,270.0 296.5,274.0 Q293.0,278.0 292.5,281.0 Q292.0,284.0 291.5,284.5 Q291.0,285.0 291.0,288.5 Q291.0,292.0 291.5,292.5 Q292.0,293.0 292.0,295.0 Q292.0,297.0 294.0,300.5 Q296.0,304.0 297.0,305.0 Q298.0,306.0 301.5,308.0 Q305.0,310.0 306.0,310.0 Q307.0,310.0 307.5,310.5 Q308.0,311.0 310.0,311.0 Q312.0,311.0 312.5,311.5 Q313.0,312.0 318.5,311.5 Q324.0,311.0 329.0,308.5 Q334.0,306.0 335.5,304.0 Q337.0,302.0 337.5,300.0 Q338.0,298.0 338.5,297.5 Q339.0,297.0 339.0,290.0 Q339.0,283.0 337.0,278.5 Q335.0,274.0 332.0,271.5 Q329.0,269.0 325.5,267.5 Q322.0,266.0 315.5,266.0 Q309.0,266.0 304.5,268.0 Z M317.5,276.5 L320.0,274.0 L321.5,274.5 Q323.0,275.0 325.0,277.0 Q327.0,279.0 326.5,281.0 Q326.0,283.0 324.0,284.5 Q322.0,286.0 321.0,286.0 Q320.0,286.0 317.5,283.5 Q315.0,281.0 315.0,280.0 Q315.0,279.0 317.5,276.5 Z"/></g><g id="nose"><path fill="#6E3110" fill-rule="evenodd" d="M250.0,296.5 Q249.0,297.0 248.5,298.0 Q248.0,299.0 248.0,301.5 Q248.0,304.0 249.5,305.0 Q251.0,306.0 253.0,306.0 Q255.0,306.0 256.0,305.5 Q257.0,305.0 257.5,304.0 Q258.0,303.0 258.0,301.0 Q258.0,299.0 257.5,298.0 Q257.0,297.0 256.0,296.5 Q255.0,296.0 253.0,296.0 Q251.0,296.0 250.0,296.5 Z"/></g><g id="mouth"><path fill="#6E3110" fill-rule="evenodd" d="M290.5,363.0 Q293.0,358.0 293.0,353.0 Q293.0,348.0 292.5,347.5 Q292.0,347.0 292.0,345.5 Q292.0,344.0 290.5,341.5 Q289.0,339.0 290.0,336.5 Q291.0,334.0 291.0,327.5 Q291.0,321.0 290.5,320.5 Q290.0,320.0 287.5,320.0 Q285.0,320.0 280.5,322.0 Q276.0,324.0 274.0,324.0 Q272.0,324.0 269.0,325.0 Q266.0,326.0 258.0,326.5 Q250.0,327.0 249.5,327.5 Q249.0,328.0 241.5,328.0 Q234.0,328.0 233.5,327.5 Q233.0,327.0 229.5,327.0 Q226.0,327.0 225.5,326.5 Q225.0,326.0 222.0,326.0 Q219.0,326.0 218.5,326.5 Q218.0,327.0 218.5,332.5 Q219.0,338.0 222.5,344.0 Q226.0,350.0 229.0,353.0 Q232.0,356.0 235.0,358.0 Q238.0,360.0 240.0,360.5 Q242.0,361.0 245.5,364.5 Q249.0,368.0 253.0,370.5 Q257.0,373.0 260.5,374.0 Q264.0,375.0 269.5,375.0 Q275.0,375.0 278.0,374.0 Q281.0,373.0 284.5,370.5 Q288.0,368.0 290.5,363.0 Z M240.5,339.5 Q242.0,338.0 244.0,337.0 Q246.0,336.0 247.5,336.0 Q249.0,336.0 249.5,335.5 Q250.0,335.0 254.0,335.5 Q258.0,336.0 260.5,337.5 Q263.0,339.0 265.5,341.5 Q268.0,344.0 269.5,347.0 L271.0,350.0 L271.5,350.0 L272.0,350.0 L272.0,348.0 Q272.0,346.0 271.5,345.5 Q271.0,345.0 270.5,342.5 Q270.0,340.0 268.5,337.5 L267.0,335.0 L268.0,334.0 Q269.0,333.0 272.0,333.0 Q275.0,333.0 276.0,333.5 Q277.0,334.0 280.5,337.5 Q284.0,341.0 285.5,344.0 Q287.0,347.0 287.0,349.0 Q287.0,351.0 287.5,351.5 L288.0,352.0 L287.5,352.5 Q287.0,353.0 287.0,355.0 Q287.0,357.0 286.5,358.0 Q286.0,359.0 282.5,362.5 Q279.0,366.0 277.0,367.0 Q275.0,368.0 272.5,368.0 Q270.0,368.0 269.5,368.5 L269.0,369.0 L268.5,368.5 Q268.0,368.0 266.0,368.0 Q264.0,368.0 263.5,367.5 Q263.0,367.0 262.0,367.0 Q261.0,367.0 258.5,365.5 Q256.0,364.0 249.0,356.5 Q242.0,349.0 241.5,347.5 Q241.0,346.0 240.0,345.0 Q239.0,344.0 239.0,342.5 Q239.0,341.0 240.5,339.5 Z"/></g><g id="accent"></g></svg>