<svg xmlns="http://www.w3.org/2000/svg" viewBox="0 0 512 512" fill="none"><g id="outline"><path fill="#6E3110" fill-rule="evenodd" d="M82.0,289.0 Q77.0,297.0 77.0,309.0 Q77.0,321.0 85.5,334.0 Q94.0,347.0 103.5,351.5 Q113.0,356.0 123.5,356.0 Q134.0,356.0 142.0,364.5 Q150.0,373.0 165.5,381.5 Q181.0,390.0 205.0,396.0 Q229.0,402.0 255.5,402.0 Q282.0,402.0 311.0,394.0 Q340.0,386.0 352.0,378.5 Q364.0,371.0 372.5,361.0 L381.0,351.0 L390.5,351.0 Q400.0,351.0 407.0,348.0 Q414.0,345.0 420.5,338.5 Q427.0,332.0 430.5,324.5 Q434.0,317.0 434.0,306.0 Q434.0,295.0 430.5,288.0 Q427.0,281.0 421.5,276.5 Q416.0,272.0 407.0,270.0 L398.0,268.0 L395.5,242.0 Q393.0,216.0 382.5,195.5 Q372.0,175.0 353.5,159.5 Q335.0,144.0 310.0,136.0 Q285.0,128.0 278.0,118.0 L271.0,108.0 L269.0,108.0 L267.0,108.0 L267.5,117.0 L268.0,126.0 L252.0,117.0 Q236.0,108.0 233.0,108.0 L230.0,108.0 L229.5,110.0 L229.0,112.0 L235.0,115.5 Q241.0,119.0 242.5,122.5 L244.0,126.0 L230.0,121.5 Q216.0,117.0 208.0,117.5 L200.0,118.0 L200.5,120.0 L201.0,122.0 L207.0,123.0 L213.0,124.0 L213.5,126.5 L214.0,129.0 L196.0,134.0 Q178.0,139.0 160.0,151.0 Q142.0,163.0 131.5,177.0 Q121.0,191.0 116.5,202.5 Q112.0,214.0 110.0,224.5 Q108.0,235.0 108.5,254.0 L109.0,273.0 L98.0,277.0 Q87.0,281.0 82.0,289.0 Z M87.0,312.0 Q86.0,301.0 93.0,292.5 L100.0,284.0 L111.0,286.0 L122.0,288.0 L119.5,277.0 Q117.0,266.0 118.5,243.5 Q120.0,221.0 126.0,206.5 Q132.0,192.0 142.0,180.0 Q152.0,168.0 164.0,159.5 Q176.0,151.0 188.0,146.0 Q200.0,141.0 230.0,137.5 Q260.0,134.0 273.5,135.5 Q287.0,137.0 303.0,142.0 Q319.0,147.0 339.5,162.0 Q360.0,177.0 368.0,188.5 Q376.0,200.0 381.5,215.5 Q387.0,231.0 386.5,256.5 L386.0,282.0 L388.0,283.0 L390.0,284.0 L395.0,281.0 Q400.0,278.0 406.5,279.5 Q413.0,281.0 418.0,287.0 Q423.0,293.0 424.0,302.5 Q425.0,312.0 417.5,324.0 Q410.0,336.0 398.5,339.5 L387.0,343.0 L387.5,327.5 L388.0,312.0 L399.5,305.5 L411.0,299.0 L403.0,298.0 Q395.0,297.0 388.0,300.5 L381.0,304.0 L378.5,321.0 Q376.0,338.0 372.5,344.5 Q369.0,351.0 359.5,360.0 Q350.0,369.0 332.5,377.0 Q315.0,385.0 284.5,389.5 Q254.0,394.0 232.5,391.5 Q211.0,389.0 189.5,381.0 Q168.0,373.0 155.5,362.0 Q143.0,351.0 138.5,341.5 Q134.0,332.0 132.5,321.5 L131.0,311.0 L125.0,307.5 Q119.0,304.0 111.5,303.5 L104.0,303.0 L101.5,305.5 L99.0,308.0 L105.5,308.5 Q112.0,309.0 118.0,313.5 Q124.0,318.0 126.5,332.0 L129.0,346.0 L123.0,347.0 Q117.0,348.0 111.0,345.5 Q105.0,343.0 96.5,333.0 Q88.0,323.0 87.0,312.0 Z"/></g><g id="hair"><path fill="#6E3110" fill-rule="evenodd" d="M264.0,146.5 Q263.0,145.0 261.0,145.0 L259.0,145.0 L259.0,147.5 Q259.0,150.0 259.5,150.5 L260.0,151.0 L259.5,152.0 Q259.0,153.0 259.0,155.5 Q259.0,158.0 257.0,162.5 Q255.0,167.0 253.5,168.5 Q252.0,170.0 252.0,171.5 L252.0,173.0 L254.0,173.0 Q256.0,173.0 257.0,172.5 Q258.0,172.0 261.0,168.5 Q264.0,165.0 264.0,164.0 Q264.0,163.0 264.5,162.5 Q265.0,162.0 265.0,155.0 Q265.0,148.0 264.0,146.5 Z"/><path fill="#6E3110" fill-rule="evenodd" d="M222.0,153.5 L222.0,147.0 L220.5,147.0 L219.0,147.0 L218.0,150.5 Q217.0,154.0 214.0,159.0 Q211.0,164.0 207.5,167.5 Q204.0,171.0 203.5,171.0 Q203.0,171.0 201.0,173.0 Q199.0,175.0 198.5,175.0 L198.0,175.0 L198.0,176.0 L198.0,177.0 L201.0,177.0 Q204.0,177.0 204.5,176.5 Q205.0,176.0 206.5,176.0 Q208.0,176.0 210.5,174.5 Q213.0,173.0 216.0,170.0 Q219.0,167.0 220.5,163.5 Q222.0,160.0 222.0,153.5 Z"/><path fill="#6E3110" fill-rule="evenodd" d="M242.0,148.5 Q241.0,147.0 240.0,147.0 L239.0,147.0 L238.5,150.5 Q238.0,154.0 237.5,154.5 Q237.0,155.0 237.0,156.0 Q237.0,157.0 235.5,160.5 Q234.0,164.0 229.0,169.5 Q224.0,175.0 224.0,176.0 L224.0,177.0 L227.0,177.0 Q230.0,177.0 232.0,176.0 Q234.0,175.0 236.5,173.0 Q239.0,171.0 241.0,167.0 Q243.0,163.0 243.0,156.5 Q243.0,150.0 242.0,148.5 Z"/></g><g id="brows"><path fill="#6E3110" fill-rule="evenodd" d="M304.5,236.0 Q301.0,238.0 301.0,239.5 L301.0,241.0 L306.0,240.5 Q311.0,240.0 311.5,239.5 Q312.0,239.0 314.0,239.0 Q316.0,239.0 316.5,239.5 Q317.0,240.0 319.5,240.0 Q322.0,240.0 322.5,240.5 Q323.0,241.0 324.5,241.0 Q326.0,241.0 327.5,242.0 Q329.0,243.0 331.0,243.5 Q333.0,244.0 335.5,246.0 Q338.0,248.0 340.0,248.5 L342.0,249.0 L342.0,247.0 Q342.0,245.0 341.5,244.0 Q341.0,243.0 339.5,241.5 Q338.0,240.0 333.5,237.5 Q329.0,235.0 327.5,235.0 Q326.0,235.0 325.5,234.5 Q325.0,234.0 316.5,234.0 Q308.0,234.0 304.5,236.0 Z"/><path fill="#6E3110" fill-rule="evenodd" d="M200.0,241.5 L200.0,240.0 L199.5,240.0 Q199.0,240.0 198.0,239.0 Q197.0,238.0 195.5,238.0 Q194.0,238.0 193.5,237.5 Q193.0,237.0 187.0,237.0 Q181.0,237.0 180.5,237.5 Q180.0,238.0 177.0,238.5 Q174.0,239.0 170.5,241.0 Q167.0,243.0 164.5,245.5 Q162.0,248.0 162.0,249.0 Q162.0,250.0 161.5,250.5 Q161.0,251.0 161.0,253.0 L161.0,255.0 L163.0,254.5 Q165.0,254.0 167.0,252.0 Q169.0,250.0 173.5,247.5 Q178.0,245.0 181.0,244.5 Q184.0,244.0 184.5,243.5 Q185.0,243.0 192.5,243.0 L200.0,243.0 L200.0,241.5 Z"/><path fill="#6E3110" fill-rule="evenodd" d="M294.0,275.5 Q291.0,279.0 291.0,282.0 L291.0,285.0 L294.0,285.0 Q297.0,285.0 298.5,283.5 Q300.0,282.0 303.5,280.0 Q307.0,278.0 308.0,278.0 Q309.0,278.0 311.0,277.0 Q313.0,276.0 316.5,276.0 Q320.0,276.0 320.5,276.5 Q321.0,277.0 322.5,277.0 Q324.0,277.0 327.5,278.5 Q331.0,280.0 335.0,283.5 Q339.0,287.0 341.0,287.0 Q343.0,287.0 343.5,286.5 Q344.0,286.0 344.0,283.0 Q344.0,280.0 341.5,276.5 Q339.0,273.0 334.5,270.5 Q330.0,268.0 329.0,268.0 Q328.0,268.0 327.5,267.5 Q327.0,267.0 325.0,267.0 Q323.0,267.0 322.5,266.5 Q322.0,266.0 317.0,266.0 Q312.0,266.0 311.5,266.5 Q311.0,267.0 309.0,267.0 Q307.0,267.0 306.5,267.5 Q306.0,268.0 305.0,268.0 Q304.0,268.0 300.5,270.0 Q297.0,272.0 294.0,275.5 Z"/><path fill="#6E3110" fill-rule="evenodd" d="M167.0,290.0 Q167.0,292.0 168.0,293.0 Q169.0,294.0 171.0,294.0 Q173.0,294.0 178.5,289.0 Q184.0,284.0 185.0,284.0 Q186.0,284.0 187.5,283.0 Q189.0,282.0 191.0,282.0 Q193.0,282.0 193.5,281.5 Q194.0,281.0 198.5,281.5 Q203.0,282.0 207.5,284.0 Q212.0,286.0 213.0,287.0 Q214.0,288.0 216.5,288.0 L219.0,288.0 L219.0,285.0 Q219.0,282.0 217.0,279.5 Q215.0,277.0 211.5,275.0 Q208.0,273.0 205.0,272.5 Q202.0,272.0 201.5,271.5 Q201.0,271.0 194.5,271.0 Q188.0,271.0 187.5,271.5 Q187.0,272.0 185.5,272.0 Q184.0,272.0 182.5,273.0 Q181.0,274.0 180.0,274.0 Q179.0,274.0 178.0,275.0 Q177.0,276.0 175.0,277.0 Q173.0,278.0 171.5,279.5 Q170.0,281.0 169.0,283.0 Q168.0,285.0 168.0,286.0 Q168.0,287.0 167.5,287.5 Q167.0,288.0 167.0,290.0 Z"/></g><g id="eyes"></g><g id="nose"><path fill="#6E3110" fill-rule="evenodd" d="M254.5,282.0 Q252.0,282.0 251.0,283.0 Q250.0,284.0 250.0,286.0 Q250.0,288.0 251.0,289.0 Q252.0,290.0 254.5,290.0 Q257.0,290.0 258.0,289.0 Q259.0,288.0 259.0,286.0 Q259.0,284.0 258.0,283.0 Q257.0,282.0 254.5,282.0 Z"/></g><g id="mouth"><path fill="#6E3110" fill-rule="evenodd" d="M213.0,311.5 Q209.0,314.0 209.5,322.0 Q210.0,330.0 214.0,338.5 Q218.0,347.0 222.5,352.0 Q227.0,357.0 234.0,361.0 Q241.0,365.0 244.5,366.0 Q248.0,367.0 258.0,367.0 Q268.0,367.0 275.5,364.0 Q283.0,361.0 290.0,354.0 Q297.0,347.0 299.5,342.0 Q302.0,337.0 303.5,331.5 Q305.0,326.0 305.0,318.0 L305.0,310.0 L299.0,307.5 Q293.0,305.0 284.5,303.5 Q276.0,302.0 262.0,302.0 Q248.0,302.0 247.5,302.5 Q247.0,303.0 240.5,303.5 Q234.0,304.0 225.5,306.5 Q217.0,309.0 213.0,311.5 Z M226.5,343.5 Q225.0,341.0 225.0,340.0 Q225.0,339.0 230.0,334.5 Q235.0,330.0 239.0,328.0 Q243.0,326.0 244.0,326.0 Q245.0,326.0 247.0,325.0 Q249.0,324.0 251.0,324.0 Q253.0,324.0 253.5,323.5 Q254.0,323.0 260.5,323.0 Q267.0,323.0 267.5,323.5 Q268.0,324.0 270.0,324.0 Q272.0,324.0 272.5,324.5 Q273.0,325.0 275.5,325.5 Q278.0,326.0 280.0,327.0 Q282.0,328.0 283.0,329.0 Q284.0,330.0 285.5,330.5 Q287.0,331.0 289.5,333.5 L292.0,336.0 L290.5,340.0 Q289.0,344.0 284.0,349.5 Q279.0,355.0 278.5,355.0 Q278.0,355.0 276.5,356.5 Q275.0,358.0 273.0,359.0 Q271.0,360.0 268.5,360.5 Q266.0,361.0 265.5,361.5 Q265.0,362.0 258.5,362.0 Q252.0,362.0 246.0,359.5 Q240.0,357.0 234.0,351.5 Q228.0,346.0 226.5,343.5 Z"/></g><g id="accent"></g></svg>