<svg xmlns="http://www.w3.org/2000/svg" viewBox="0 0 512 512" fill="none"><g id="outline"><path fill="#6E3110" fill-rule="evenodd" d="M82.5,283.5 Q77.0,292.0 77.0,302.5 Q77.0,313.0 85.0,325.0 Q93.0,337.0 110.0,340.5 Q127.0,344.0 141.0,356.0 Q155.0,368.0 181.0,376.0 Q207.0,384.0 241.5,384.0 Q276.0,384.0 292.0,380.0 Q308.0,376.0 331.0,359.5 Q354.0,343.0 370.0,341.0 L386.0,339.0 L395.5,323.5 Q405.0,308.0 401.0,293.5 L397.0,279.0 L383.5,273.5 L370.0,268.0 L370.5,254.5 Q371.0,241.0 367.5,236.5 L364.0,232.0 L361.0,258.0 L358.0,284.0 L371.5,282.5 L385.0,281.0 L390.5,289.0 Q396.0,297.0 395.0,306.0 Q394.0,315.0 387.5,323.0 Q381.0,331.0 371.0,333.5 L361.0,336.0 L362.5,321.5 L364.0,307.0 L374.0,303.5 L384.0,300.0 L373.0,298.5 L362.0,297.0 L352.0,320.0 Q342.0,343.0 321.0,356.0 Q300.0,369.0 267.0,373.0 Q234.0,377.0 203.5,371.5 Q173.0,366.0 156.0,354.5 Q139.0,343.0 131.5,322.0 Q124.0,301.0 118.5,298.0 Q113.0,295.0 105.0,297.5 L97.0,300.0 L107.0,303.5 L117.0,307.0 L119.5,320.5 L122.0,334.0 L114.0,334.0 Q106.0,334.0 98.5,327.5 Q91.0,321.0 88.0,313.5 Q85.0,306.0 87.0,297.0 Q89.0,288.0 96.0,283.0 L103.0,278.0 L112.5,281.0 L122.0,284.0 L120.0,262.0 Q118.0,240.0 122.5,225.5 Q127.0,211.0 139.5,195.5 Q152.0,180.0 166.0,171.5 Q180.0,163.0 206.5,157.5 Q233.0,152.0 257.0,154.5 Q281.0,157.0 300.0,165.5 Q319.0,174.0 338.5,192.5 L358.0,211.0 L346.5,192.5 Q335.0,174.0 304.0,160.0 Q273.0,146.0 266.0,136.5 L259.0,127.0 L256.5,127.0 L254.0,127.0 L255.0,136.0 L256.0,145.0 L242.5,136.0 L229.0,127.0 L224.5,129.0 L220.0,131.0 L226.5,137.5 L233.0,144.0 L210.0,140.0 L187.0,136.0 L194.0,142.0 L201.0,148.0 L173.5,160.0 Q146.0,172.0 131.0,192.0 Q116.0,212.0 113.0,240.0 L110.0,268.0 L99.0,271.5 Q88.0,275.0 82.5,283.5 Z"/></g><g id="hair"><path fill="#6E3110" fill-rule="evenodd" d="M252.0,165.0 L251.0,163.0 L250.0,163.0 L249.0,163.0 L248.5,164.0 Q248.0,165.0 248.0,167.0 Q248.0,169.0 247.5,169.5 Q247.0,170.0 246.5,173.0 Q246.0,176.0 244.5,179.0 Q243.0,182.0 241.0,184.5 Q239.0,187.0 239.0,188.5 L239.0,190.0 L240.5,190.0 Q242.0,190.0 244.0,189.0 Q246.0,188.0 247.5,186.5 Q249.0,185.0 250.5,182.5 Q252.0,180.0 252.0,179.0 Q252.0,178.0 252.5,177.5 Q253.0,177.0 253.0,172.0 Q253.0,167.0 252.0,165.0 Z"/><path fill="#6E3110" fill-rule="evenodd" d="M210.5,166.0 L210.0,165.0 L209.0,165.0 Q208.0,165.0 207.5,165.5 Q207.0,166.0 207.0,167.0 Q207.0,168.0 206.0,170.0 Q205.0,172.0 204.0,173.0 Q203.0,174.0 202.5,175.5 Q202.0,177.0 195.0,184.5 Q188.0,192.0 188.0,193.0 L188.0,194.0 L191.0,194.0 Q194.0,194.0 194.5,193.5 Q195.0,193.0 196.0,193.0 Q197.0,193.0 199.5,191.5 Q202.0,190.0 204.0,188.0 Q206.0,186.0 208.0,182.5 Q210.0,179.0 210.0,177.5 Q210.0,176.0 210.5,175.5 Q211.0,175.0 211.0,171.0 Q211.0,167.0 210.5,166.0 Z"/><path fill="#6E3110" fill-rule="evenodd" d="M232.0,167.0 L231.0,165.0 L230.0,165.0 Q229.0,165.0 228.5,165.5 Q228.0,166.0 227.0,170.0 Q226.0,174.0 224.5,177.0 Q223.0,180.0 222.0,181.0 Q221.0,182.0 221.0,182.5 Q221.0,183.0 216.5,187.5 Q212.0,192.0 212.0,193.0 L212.0,194.0 L215.0,194.0 Q218.0,194.0 221.0,192.5 Q224.0,191.0 227.0,187.5 Q230.0,184.0 231.0,182.0 Q232.0,180.0 232.0,178.5 Q232.0,177.0 232.5,176.5 Q233.0,176.0 233.0,172.5 Q233.0,169.0 232.0,167.0 Z"/></g><g id="brows"><path fill="#6E3110" fill-rule="evenodd" d="M341.5,218.5 Q338.0,219.0 337.5,219.5 Q337.0,220.0 337.0,221.5 Q337.0,223.0 338.0,224.0 Q339.0,225.0 341.0,225.0 Q343.0,225.0 344.0,226.0 L345.0,227.0 L340.5,231.0 Q336.0,235.0 336.0,237.5 Q336.0,240.0 336.5,240.5 Q337.0,241.0 339.5,241.0 Q342.0,241.0 342.5,241.5 Q343.0,242.0 350.0,242.5 Q357.0,243.0 358.0,242.0 Q359.0,241.0 359.0,239.0 L359.0,237.0 L358.0,236.5 Q357.0,236.0 354.5,236.0 Q352.0,236.0 351.0,235.0 L350.0,234.0 L354.5,230.5 Q359.0,227.0 359.0,224.0 Q359.0,221.0 357.5,220.0 Q356.0,219.0 351.0,219.0 Q346.0,219.0 345.5,218.5 Q345.0,218.0 341.5,218.5 Z"/><path fill="#6E3110" fill-rule="evenodd" d="M193.0,245.5 L193.0,244.0 L190.0,242.5 Q187.0,241.0 181.0,241.0 Q175.0,241.0 174.5,241.5 Q174.0,242.0 171.0,242.5 Q168.0,243.0 165.5,244.5 Q163.0,246.0 160.0,249.0 Q157.0,252.0 156.5,253.0 Q156.0,254.0 156.0,256.0 L156.0,258.0 L157.0,258.0 Q158.0,258.0 160.5,256.5 Q163.0,255.0 164.5,253.5 Q166.0,252.0 172.0,249.5 Q178.0,247.0 180.5,247.0 Q183.0,247.0 183.5,246.5 Q184.0,246.0 188.5,246.5 L193.0,247.0 L193.0,245.5 Z"/><path fill="#6E3110" fill-rule="evenodd" d="M285.5,243.5 Q284.0,245.0 284.0,246.0 L284.0,247.0 L289.5,246.5 Q295.0,246.0 295.5,246.5 Q296.0,247.0 300.0,247.5 Q304.0,248.0 308.0,250.0 Q312.0,252.0 315.0,254.5 Q318.0,257.0 320.0,257.5 L322.0,258.0 L322.0,256.0 Q322.0,254.0 321.5,253.0 Q321.0,252.0 318.0,249.0 Q315.0,246.0 312.5,244.5 Q310.0,243.0 307.0,242.5 Q304.0,242.0 303.5,241.5 Q303.0,241.0 297.0,241.0 Q291.0,241.0 290.5,241.5 Q290.0,242.0 288.5,242.0 Q287.0,242.0 285.5,243.5 Z"/><path fill="#6E3110" fill-rule="evenodd" d="M205.0,282.0 L205.0,279.0 L202.5,279.0 Q200.0,279.0 199.0,280.0 Q198.0,281.0 194.5,283.0 Q191.0,285.0 190.0,285.0 Q189.0,285.0 188.5,285.5 Q188.0,286.0 185.5,286.0 Q183.0,286.0 182.5,286.5 L182.0,287.0 L181.0,286.5 Q180.0,286.0 177.5,286.0 Q175.0,286.0 171.0,283.5 Q167.0,281.0 164.5,281.0 L162.0,281.0 L162.0,284.5 Q162.0,288.0 164.0,290.0 Q166.0,292.0 169.0,293.5 Q172.0,295.0 173.5,295.0 Q175.0,295.0 175.5,295.5 Q176.0,296.0 182.0,296.0 Q188.0,296.0 188.5,295.5 Q189.0,295.0 192.0,294.5 Q195.0,294.0 197.5,292.5 Q200.0,291.0 202.5,288.0 Q205.0,285.0 205.0,282.0 Z"/></g><g id="eyes"><path fill="#6E3110" fill-rule="evenodd" d="M274.5,278.5 Q274.0,279.0 274.0,282.0 Q274.0,285.0 274.5,286.0 Q275.0,287.0 277.5,289.5 Q280.0,292.0 283.0,293.5 Q286.0,295.0 288.0,295.0 Q290.0,295.0 290.5,295.5 Q291.0,296.0 297.0,296.0 Q303.0,296.0 303.5,295.5 Q304.0,295.0 305.5,295.0 Q307.0,295.0 311.0,293.0 Q315.0,291.0 316.5,289.0 Q318.0,287.0 318.0,284.0 L318.0,281.0 L315.0,281.0 Q312.0,281.0 311.0,282.0 Q310.0,283.0 307.0,284.5 Q304.0,286.0 301.5,286.0 Q299.0,286.0 298.5,286.5 Q298.0,287.0 297.0,287.0 Q296.0,287.0 295.5,286.5 Q295.0,286.0 293.0,286.0 Q291.0,286.0 290.5,285.5 Q290.0,285.0 289.0,285.0 Q288.0,285.0 284.5,283.0 Q281.0,281.0 279.5,279.5 Q278.0,278.0 276.5,278.0 Q275.0,278.0 274.5,278.5 Z"/></g><g id="nose"><path fill="#6E3110" fill-rule="evenodd" d="M234.0,288.0 Q233.0,289.0 233.0,291.0 Q233.0,293.0 234.5,294.0 Q236.0,295.0 238.0,295.0 Q240.0,295.0 241.0,294.5 Q242.0,294.0 242.5,293.0 Q243.0,292.0 243.0,290.5 Q243.0,289.0 242.0,288.0 Q241.0,287.0 238.0,287.0 Q235.0,287.0 234.0,288.0 Z"/></g><g id="mouth"><path fill="#6E3110" fill-rule="evenodd" d="M230.0,310.0 Q229.0,310.0 226.0,313.0 Q223.0,316.0 222.0,318.0 Q221.0,320.0 221.0,321.5 Q221.0,323.0 220.5,323.5 Q220.0,324.0 220.0,328.5 Q220.0,333.0 220.5,333.5 Q221.0,334.0 222.0,337.5 Q223.0,341.0 226.0,344.0 Q229.0,347.0 231.0,348.0 Q233.0,349.0 234.5,349.0 Q236.0,349.0 236.5,349.5 Q237.0,350.0 241.0,350.0 Q245.0,350.0 245.5,349.5 Q246.0,349.0 247.5,349.0 Q249.0,349.0 251.0,348.0 Q253.0,347.0 255.5,344.5 Q258.0,342.0 259.5,338.5 Q261.0,335.0 261.0,329.0 Q261.0,323.0 259.5,319.5 Q258.0,316.0 255.5,313.5 Q253.0,311.0 249.5,309.5 Q246.0,308.0 240.0,308.0 Q234.0,308.0 232.5,309.0 Q231.0,310.0 230.0,310.0 Z M230.0,332.0 Q231.0,330.0 232.5,328.5 Q234.0,327.0 236.0,326.0 Q238.0,325.0 241.0,325.0 Q244.0,325.0 246.0,326.0 Q248.0,327.0 250.0,329.0 Q252.0,331.0 252.5,332.0 Q253.0,333.0 253.0,335.0 Q253.0,337.0 250.5,340.0 Q248.0,343.0 246.0,344.0 Q244.0,345.0 241.0,345.0 Q238.0,345.0 237.0,344.5 Q236.0,344.0 233.0,341.0 Q230.0,338.0 229.5,337.0 Q229.0,336.0 229.0,335.0 Q229.0,334.0 230.0,332.0 Z"/></g><g id="accent"><path fill="#6E3110" fill-rule="evenodd" d="M427.5,153.5 Q426.0,152.0 422.0,152.0 Q418.0,152.0 417.5,152.5 Q417.0,153.0 413.5,153.0 Q410.0,153.0 409.5,153.5 Q409.0,154.0 405.5,154.0 Q402.0,154.0 401.5,154.5 Q401.0,155.0 397.5,155.0 Q394.0,155.0 393.5,155.5 Q393.0,156.0 391.5,156.0 L390.0,156.0 L389.5,157.0 Q389.0,158.0 389.0,160.5 Q389.0,163.0 390.5,164.0 Q392.0,165.0 397.0,164.5 Q402.0,164.0 402.5,163.5 Q403.0,163.0 406.0,163.0 Q409.0,163.0 410.0,164.0 L411.0,165.0 L403.5,173.5 Q396.0,182.0 395.5,183.0 Q395.0,184.0 395.0,186.5 Q395.0,189.0 396.0,190.0 Q397.0,191.0 399.5,191.5 Q402.0,192.0 402.5,191.5 Q403.0,191.0 406.0,191.0 Q409.0,191.0 409.5,190.5 Q410.0,190.0 413.0,190.0 Q416.0,190.0 416.5,189.5 Q417.0,189.0 422.5,188.5 Q428.0,188.0 428.5,187.5 Q429.0,187.0 431.5,186.5 L434.0,186.0 L434.0,183.0 L434.0,180.0 L433.0,179.5 Q432.0,179.0 429.0,179.0 Q426.0,179.0 425.5,179.5 Q425.0,180.0 422.0,180.0 Q419.0,180.0 418.5,180.5 Q418.0,181.0 416.5,181.0 Q415.0,181.0 414.0,180.0 L413.0,179.0 L419.5,171.5 Q426.0,164.0 427.5,161.5 Q429.0,159.0 429.0,157.0 Q429.0,155.0 427.5,153.5 Z"/><path fill="#6E3110" fill-rule="evenodd" d="M365.5,192.5 Q365.0,193.0 365.0,195.0 Q365.0,197.0 365.5,198.0 L366.0,199.0 L371.0,199.0 Q376.0,199.0 377.0,200.0 L378.0,201.0 L372.0,206.0 Q366.0,211.0 366.0,214.0 L366.0,217.0 L367.0,217.5 Q368.0,218.0 376.0,218.0 Q384.0,218.0 384.5,218.5 Q385.0,219.0 387.5,219.0 Q390.0,219.0 390.5,218.5 Q391.0,218.0 392.5,218.0 L394.0,218.0 L394.0,215.5 Q394.0,213.0 393.5,212.5 Q393.0,212.0 388.0,212.0 Q383.0,212.0 382.0,211.0 L381.0,210.0 L387.0,204.5 Q393.0,199.0 393.0,196.0 L393.0,193.0 L392.0,192.5 Q391.0,192.0 378.5,192.0 Q366.0,192.0 365.5,192.5 Z"/></g></svg>