<svg xmlns="http://www.w3.org/2000/svg" viewBox="0 0 512 512" fill="none"><g id="outline"><path fill="#6E3110" fill-rule="evenodd" d="M84.0,281.5 Q77.0,292.0 77.0,303.0 Q77.0,314.0 81.0,322.5 Q85.0,331.0 90.5,336.5 Q96.0,342.0 105.5,345.5 Q115.0,349.0 123.0,348.0 L131.0,347.0 L137.0,355.0 Q143.0,363.0 152.5,370.5 Q162.0,378.0 178.5,385.0 Q195.0,392.0 211.0,395.5 Q227.0,399.0 256.5,399.0 Q286.0,399.0 309.5,393.0 Q333.0,387.0 348.0,378.0 Q363.0,369.0 372.0,358.0 L381.0,347.0 L388.5,348.0 Q396.0,349.0 406.5,345.0 Q417.0,341.0 425.5,328.5 Q434.0,316.0 434.0,303.5 Q434.0,291.0 431.0,285.0 Q428.0,279.0 422.0,274.0 Q416.0,269.0 406.0,267.0 L396.0,265.0 L393.5,241.0 Q391.0,217.0 386.0,205.0 Q381.0,193.0 374.0,183.0 Q367.0,173.0 357.5,164.5 Q348.0,156.0 335.5,149.0 Q323.0,142.0 303.5,137.0 Q284.0,132.0 277.0,122.0 L270.0,112.0 L268.5,112.0 L267.0,112.0 L267.0,121.0 L267.0,130.0 L252.5,121.0 Q238.0,112.0 235.0,112.0 L232.0,112.0 L231.0,114.0 L230.0,116.0 L238.0,122.0 L246.0,128.0 L243.5,129.5 L241.0,131.0 L230.0,126.5 Q219.0,122.0 210.0,122.5 L201.0,123.0 L207.5,126.0 L214.0,129.0 L214.0,131.0 L214.0,133.0 L196.0,138.5 Q178.0,144.0 164.5,152.5 Q151.0,161.0 142.5,170.0 Q134.0,179.0 126.5,193.0 Q119.0,207.0 115.5,221.5 Q112.0,236.0 112.0,250.5 L112.0,265.0 L101.5,268.0 Q91.0,271.0 84.0,281.5 Z M88.5,307.5 Q87.0,297.0 89.5,291.0 Q92.0,285.0 97.0,281.0 L102.0,277.0 L113.0,279.0 L124.0,281.0 L122.5,263.0 Q121.0,245.0 123.0,233.0 Q125.0,221.0 131.5,206.5 Q138.0,192.0 147.5,181.0 Q157.0,170.0 167.0,163.0 Q177.0,156.0 190.5,150.5 Q204.0,145.0 235.5,142.0 Q267.0,139.0 291.5,144.5 Q316.0,150.0 327.0,156.0 Q338.0,162.0 350.0,173.0 Q362.0,184.0 373.0,207.0 Q384.0,230.0 385.5,240.5 Q387.0,251.0 385.5,265.5 L384.0,280.0 L391.5,278.0 Q399.0,276.0 406.5,278.0 Q414.0,280.0 418.0,285.0 Q422.0,290.0 423.0,300.0 Q424.0,310.0 417.5,321.0 Q411.0,332.0 399.5,336.0 L388.0,340.0 L386.5,338.5 L385.0,337.0 L386.5,323.5 Q388.0,310.0 392.5,306.5 Q397.0,303.0 405.0,302.0 L413.0,301.0 L409.5,298.5 Q406.0,296.0 398.5,297.0 Q391.0,298.0 386.0,301.5 L381.0,305.0 L380.0,315.0 Q379.0,325.0 374.5,335.0 Q370.0,345.0 358.0,357.0 Q346.0,369.0 325.0,377.5 Q304.0,386.0 275.5,388.5 Q247.0,391.0 224.0,387.5 Q201.0,384.0 181.0,374.5 Q161.0,365.0 149.5,352.0 Q138.0,339.0 134.0,322.5 Q130.0,306.0 123.5,301.5 Q117.0,297.0 110.5,296.5 Q104.0,296.0 101.0,298.5 L98.0,301.0 L105.5,302.0 Q113.0,303.0 118.0,306.5 Q123.0,310.0 125.0,323.5 L127.0,337.0 L122.5,338.5 Q118.0,340.0 112.0,338.0 Q106.0,336.0 98.0,327.0 Q90.0,318.0 88.5,307.5 Z"/></g><g id="hair"><path fill="#6E3110" fill-rule="evenodd" d="M223.0,151.0 L222.0,149.0 L221.5,149.0 L221.0,149.0 L220.0,151.0 Q219.0,153.0 219.0,154.0 Q219.0,155.0 215.0,162.0 Q211.0,169.0 206.0,174.0 Q201.0,179.0 200.5,179.0 L200.0,179.0 L200.0,180.0 L200.0,181.0 L202.0,181.0 Q204.0,181.0 204.5,180.5 Q205.0,180.0 208.0,179.5 Q211.0,179.0 213.0,178.0 Q215.0,177.0 218.0,174.0 Q221.0,171.0 222.5,167.5 Q224.0,164.0 224.0,158.5 Q224.0,153.0 223.0,151.0 Z"/><path fill="#6E3110" fill-rule="evenodd" d="M265.0,150.0 Q264.0,149.0 263.0,149.0 L262.0,149.0 L261.0,157.0 Q260.0,165.0 259.0,166.5 Q258.0,168.0 258.0,169.0 Q258.0,170.0 257.0,171.0 Q256.0,172.0 255.5,173.5 Q255.0,175.0 253.5,176.5 Q252.0,178.0 252.0,178.5 L252.0,179.0 L253.5,179.0 Q255.0,179.0 258.0,177.5 Q261.0,176.0 263.0,174.0 Q265.0,172.0 266.5,169.0 Q268.0,166.0 268.0,160.5 Q268.0,155.0 267.0,153.0 Q266.0,151.0 265.0,150.0 Z"/><path fill="#6E3110" fill-rule="evenodd" d="M245.0,152.5 Q244.0,151.0 243.0,151.0 L242.0,151.0 L241.0,155.0 Q240.0,159.0 239.0,160.5 Q238.0,162.0 238.0,163.0 Q238.0,164.0 237.0,166.0 Q236.0,168.0 235.0,169.0 Q234.0,170.0 233.0,172.0 Q232.0,174.0 228.0,178.0 Q224.0,182.0 224.0,183.0 L224.0,184.0 L225.5,184.0 Q227.0,184.0 227.5,183.5 Q228.0,183.0 231.0,182.5 Q234.0,182.0 238.5,178.0 Q243.0,174.0 244.5,170.5 Q246.0,167.0 246.0,160.5 Q246.0,154.0 245.0,152.5 Z"/></g><g id="brows"><path fill="#6E3110" fill-rule="evenodd" d="M170.5,241.5 Q169.0,243.0 169.0,244.0 L169.0,245.0 L176.5,245.0 Q184.0,245.0 184.5,245.5 Q185.0,246.0 186.5,246.0 Q188.0,246.0 191.0,247.5 Q194.0,249.0 195.0,249.0 Q196.0,249.0 198.5,250.5 Q201.0,252.0 202.0,252.0 Q203.0,252.0 205.5,253.5 Q208.0,255.0 209.5,255.0 Q211.0,255.0 211.5,255.5 Q212.0,256.0 214.0,256.0 Q216.0,256.0 218.0,255.0 L220.0,254.0 L220.0,252.0 L220.0,250.0 L219.0,250.0 Q218.0,250.0 210.0,246.0 Q202.0,242.0 201.0,242.0 Q200.0,242.0 196.5,240.5 Q193.0,239.0 191.5,239.0 Q190.0,239.0 189.5,238.5 Q189.0,238.0 182.5,238.0 Q176.0,238.0 174.0,239.0 Q172.0,240.0 170.5,241.5 Z"/><path fill="#6E3110" fill-rule="evenodd" d="M340.0,243.5 Q340.0,242.0 338.0,240.5 Q336.0,239.0 335.0,239.0 Q334.0,239.0 333.5,238.5 Q333.0,238.0 326.0,238.0 Q319.0,238.0 318.5,238.5 Q318.0,239.0 315.0,239.5 Q312.0,240.0 310.5,241.0 Q309.0,242.0 305.5,243.0 Q302.0,244.0 297.5,246.5 Q293.0,249.0 291.0,249.5 Q289.0,250.0 288.5,250.5 Q288.0,251.0 288.0,252.5 L288.0,254.0 L290.0,255.0 Q292.0,256.0 294.0,256.0 Q296.0,256.0 309.5,250.5 Q323.0,245.0 325.0,245.0 Q327.0,245.0 327.5,244.5 Q328.0,244.0 334.0,244.5 L340.0,245.0 L340.0,243.5 Z"/></g><g id="eyes"><path fill="#6E3110" fill-rule="evenodd" d="M134.5,260.5 L131.0,262.0 L131.0,268.5 Q131.0,275.0 136.0,278.5 Q141.0,282.0 145.0,292.5 Q149.0,303.0 156.5,308.5 Q164.0,314.0 175.0,316.0 Q186.0,318.0 199.0,317.5 Q212.0,317.0 220.5,314.0 Q229.0,311.0 233.5,306.5 Q238.0,302.0 241.5,295.0 Q245.0,288.0 248.0,286.0 Q251.0,284.0 256.5,285.0 Q262.0,286.0 268.0,296.0 Q274.0,306.0 280.5,310.5 Q287.0,315.0 295.0,316.5 Q303.0,318.0 320.5,317.0 Q338.0,316.0 345.5,313.0 Q353.0,310.0 356.5,306.5 Q360.0,303.0 364.0,292.5 Q368.0,282.0 372.0,280.0 Q376.0,278.0 377.0,275.5 Q378.0,273.0 377.0,266.5 L376.0,260.0 L365.5,259.0 Q355.0,258.0 330.0,259.0 Q305.0,260.0 282.0,264.5 Q259.0,269.0 215.5,263.5 Q172.0,258.0 155.0,258.5 Q138.0,259.0 134.5,260.5 Z M299.5,269.5 Q306.0,269.0 307.0,270.0 L308.0,271.0 L297.5,281.0 L287.0,291.0 L285.5,289.0 Q284.0,287.0 284.0,286.0 Q284.0,285.0 283.0,283.0 Q282.0,281.0 282.0,279.5 Q282.0,278.0 281.5,277.5 Q281.0,277.0 281.0,275.5 Q281.0,274.0 282.0,273.0 Q283.0,272.0 284.0,272.0 Q285.0,272.0 285.5,271.5 Q286.0,271.0 289.0,271.0 Q292.0,271.0 292.5,270.5 Q293.0,270.0 299.5,269.5 Z M164.0,284.0 Q163.0,283.0 161.0,276.0 Q159.0,269.0 160.0,268.0 Q161.0,267.0 168.5,267.5 Q176.0,268.0 177.0,269.0 Q178.0,270.0 178.0,270.5 Q178.0,271.0 171.5,278.0 L165.0,285.0 L164.0,284.0 Z"/></g><g id="nose"><path fill="#6E3110" fill-rule="evenodd" d="M252.0,304.5 L251.0,305.0 L251.0,308.5 L251.0,312.0 L254.5,312.0 Q258.0,312.0 258.5,311.5 Q259.0,311.0 259.0,308.5 Q259.0,306.0 258.0,305.0 Q257.0,304.0 255.0,304.0 Q253.0,304.0 252.0,304.5 Z"/></g><g id="mouth"><path fill="#6E3110" fill-rule="evenodd" d="M294.0,332.5 Q294.0,331.0 292.5,329.0 Q291.0,327.0 290.0,326.5 Q289.0,326.0 287.0,326.0 Q285.0,326.0 280.5,329.0 Q276.0,332.0 273.0,332.5 Q270.0,333.0 268.0,334.0 Q266.0,335.0 262.0,335.5 Q258.0,336.0 257.5,336.5 Q257.0,337.0 254.0,337.0 Q251.0,337.0 250.5,337.5 Q250.0,338.0 239.0,338.5 L228.0,339.0 L228.0,340.0 L228.0,341.0 L231.0,342.5 Q234.0,344.0 245.0,344.0 Q256.0,344.0 256.5,343.5 Q257.0,343.0 259.5,343.0 Q262.0,343.0 262.5,342.5 Q263.0,342.0 264.5,342.0 Q266.0,342.0 267.0,341.5 L268.0,341.0 L269.0,342.0 L270.0,343.0 L268.5,344.5 Q267.0,346.0 262.5,348.5 Q258.0,351.0 258.0,351.5 L258.0,352.0 L261.5,352.0 Q265.0,352.0 265.5,351.5 Q266.0,351.0 267.5,351.0 Q269.0,351.0 274.0,348.0 Q279.0,345.0 279.0,344.5 Q279.0,344.0 280.5,342.5 Q282.0,341.0 283.0,338.5 Q284.0,336.0 285.5,334.5 L287.0,333.0 L288.5,334.0 Q290.0,335.0 291.5,335.0 Q293.0,335.0 293.5,334.5 Q294.0,334.0 294.0,332.5 Z"/></g><g id="accent"></g></svg>