<svg xmlns="http://www.w3.org/2000/svg" viewBox="0 0 512 512" fill="none"><g id="outline"><path fill="#6E3110" fill-rule="evenodd" d="M277.5,127.0 L270.0,117.0 L268.0,117.0 L266.0,117.0 L267.5,126.5 L269.0,136.0 L252.0,127.5 L235.0,119.0 L231.5,120.5 L228.0,122.0 L234.5,125.5 Q241.0,129.0 242.0,132.0 L243.0,135.0 L230.5,131.5 Q218.0,128.0 208.5,128.5 L199.0,129.0 L198.5,130.5 L198.0,132.0 L204.0,133.0 L210.0,134.0 L210.5,136.5 L211.0,139.0 L189.5,146.5 Q168.0,154.0 152.0,167.5 Q136.0,181.0 126.5,199.5 Q117.0,218.0 115.0,241.0 L113.0,264.0 L102.0,267.0 Q91.0,270.0 84.0,280.0 Q77.0,290.0 77.0,300.5 Q77.0,311.0 85.0,323.0 Q93.0,335.0 101.5,339.0 Q110.0,343.0 119.5,343.0 Q129.0,343.0 140.0,355.0 Q151.0,367.0 168.5,375.5 Q186.0,384.0 205.5,388.5 Q225.0,393.0 255.5,393.0 Q286.0,393.0 314.5,385.0 Q343.0,377.0 355.5,369.0 Q368.0,361.0 376.0,351.5 L384.0,342.0 L395.0,342.0 Q406.0,342.0 415.0,336.5 Q424.0,331.0 429.0,322.0 Q434.0,313.0 434.0,301.5 Q434.0,290.0 427.5,280.5 Q421.0,271.0 408.0,267.5 L395.0,264.0 L393.0,242.5 Q391.0,221.0 382.5,203.5 Q374.0,186.0 367.0,178.0 Q360.0,170.0 348.0,161.5 Q336.0,153.0 321.5,147.0 Q307.0,141.0 296.0,139.0 Q285.0,137.0 277.5,127.0 Z M87.0,303.5 Q86.0,294.0 93.5,284.5 Q101.0,275.0 106.5,274.5 Q112.0,274.0 118.0,276.5 L124.0,279.0 L123.0,259.5 Q122.0,240.0 124.0,230.5 Q126.0,221.0 133.5,206.0 Q141.0,191.0 150.0,181.5 Q159.0,172.0 180.5,161.0 Q202.0,150.0 219.0,147.0 Q236.0,144.0 252.5,144.0 Q269.0,144.0 293.5,149.5 Q318.0,155.0 329.5,161.5 Q341.0,168.0 351.5,177.5 Q362.0,187.0 372.5,207.0 Q383.0,227.0 385.0,239.0 Q387.0,251.0 386.0,265.0 L385.0,279.0 L393.0,276.0 Q401.0,273.0 407.0,275.0 Q413.0,277.0 418.0,283.0 Q423.0,289.0 424.0,298.5 Q425.0,308.0 417.5,319.0 Q410.0,330.0 399.5,332.0 L389.0,334.0 L390.0,319.5 L391.0,305.0 L395.5,301.5 Q400.0,298.0 406.5,297.0 L413.0,296.0 L410.5,294.0 Q408.0,292.0 401.5,292.5 Q395.0,293.0 389.0,298.0 Q383.0,303.0 379.0,320.0 Q375.0,337.0 362.5,349.5 Q350.0,362.0 327.0,371.0 Q304.0,380.0 271.0,382.5 Q238.0,385.0 216.5,381.0 Q195.0,377.0 175.5,367.5 Q156.0,358.0 146.0,346.5 Q136.0,335.0 132.0,318.5 Q128.0,302.0 124.0,298.5 Q120.0,295.0 109.0,295.0 L98.0,295.0 L105.5,297.0 Q113.0,299.0 117.0,302.5 Q121.0,306.0 123.0,319.0 L125.0,332.0 L119.5,333.5 Q114.0,335.0 109.0,333.0 Q104.0,331.0 96.0,322.0 Q88.0,313.0 87.0,303.5 Z"/></g><g id="hair"><path fill="#6E3110" fill-rule="evenodd" d="M264.5,156.5 L263.0,153.0 L262.0,153.0 L261.0,153.0 L261.0,156.5 Q261.0,160.0 260.5,160.5 Q260.0,161.0 260.0,163.5 Q260.0,166.0 259.5,166.5 Q259.0,167.0 259.0,168.0 Q259.0,169.0 257.5,172.0 Q256.0,175.0 254.0,177.0 Q252.0,179.0 252.0,180.0 L252.0,181.0 L254.0,181.0 Q256.0,181.0 258.5,179.5 Q261.0,178.0 263.0,175.0 Q265.0,172.0 265.0,170.5 Q265.0,169.0 265.5,168.5 Q266.0,168.0 266.0,164.0 Q266.0,160.0 264.5,156.5 Z"/><path fill="#6E3110" fill-rule="evenodd" d="M244.0,156.0 L243.0,154.0 L242.5,154.0 L242.0,154.0 L242.0,155.5 Q242.0,157.0 241.5,157.5 Q241.0,158.0 240.0,162.0 Q239.0,166.0 237.0,170.0 Q235.0,174.0 231.0,178.0 Q227.0,182.0 227.0,183.0 L227.0,184.0 L230.0,184.0 Q233.0,184.0 233.5,183.5 Q234.0,183.0 235.0,183.0 Q236.0,183.0 239.0,180.5 Q242.0,178.0 243.5,174.5 Q245.0,171.0 245.0,164.5 Q245.0,158.0 244.0,156.0 Z"/><path fill="#6E3110" fill-rule="evenodd" d="M225.5,156.0 L225.0,155.0 L224.0,155.0 L223.0,155.0 L223.0,156.0 Q223.0,157.0 220.5,162.0 Q218.0,167.0 217.0,168.0 Q216.0,169.0 216.0,169.5 Q216.0,170.0 210.5,175.5 Q205.0,181.0 205.0,182.0 L205.0,183.0 L207.0,183.0 Q209.0,183.0 209.5,182.5 Q210.0,182.0 211.0,182.0 Q212.0,182.0 215.0,180.5 Q218.0,179.0 220.5,176.5 Q223.0,174.0 224.5,170.5 Q226.0,167.0 226.0,162.0 Q226.0,157.0 225.5,156.0 Z"/></g><g id="brows"><path fill="#6E3110" fill-rule="evenodd" d="M208.0,238.0 L208.0,236.0 L206.0,236.0 Q204.0,236.0 200.5,238.5 Q197.0,241.0 194.0,242.5 Q191.0,244.0 190.0,244.0 Q189.0,244.0 185.5,245.5 Q182.0,247.0 180.0,247.0 Q178.0,247.0 177.5,247.5 Q177.0,248.0 174.0,248.5 L171.0,249.0 L171.0,250.0 L171.0,251.0 L172.0,251.0 Q173.0,251.0 173.5,251.5 Q174.0,252.0 180.5,252.0 Q187.0,252.0 187.5,251.5 Q188.0,251.0 190.0,251.0 Q192.0,251.0 192.5,250.5 Q193.0,250.0 195.5,249.5 Q198.0,249.0 200.5,247.5 Q203.0,246.0 205.0,244.0 Q207.0,242.0 207.5,241.0 Q208.0,240.0 208.0,238.0 Z"/><path fill="#6E3110" fill-rule="evenodd" d="M300.0,236.0 L298.0,236.0 L298.0,238.5 Q298.0,241.0 299.0,242.0 Q300.0,243.0 300.0,243.5 Q300.0,244.0 305.0,247.0 Q310.0,250.0 311.0,250.0 Q312.0,250.0 312.5,250.5 Q313.0,251.0 315.0,251.0 Q317.0,251.0 317.5,251.5 Q318.0,252.0 324.5,252.0 Q331.0,252.0 331.5,251.5 Q332.0,251.0 333.0,251.0 L334.0,251.0 L334.0,250.0 L334.0,249.0 L333.0,248.5 Q332.0,248.0 330.0,248.0 Q328.0,248.0 327.5,247.5 Q327.0,247.0 325.5,247.0 Q324.0,247.0 323.5,246.5 Q323.0,246.0 320.0,245.5 Q317.0,245.0 312.0,242.5 Q307.0,240.0 304.5,238.0 Q302.0,236.0 300.0,236.0 Z"/></g><g id="eyes"><path fill="#6E3110" fill-rule="evenodd" d="M211.0,272.0 Q203.0,267.0 196.0,265.0 Q189.0,263.0 181.5,263.0 Q174.0,263.0 169.5,265.0 Q165.0,267.0 164.5,270.5 L164.0,274.0 L172.5,274.0 Q181.0,274.0 182.0,275.0 L183.0,276.0 L177.5,279.5 L172.0,283.0 L172.5,285.5 L173.0,288.0 L177.5,287.5 Q182.0,287.0 183.0,288.0 L184.0,289.0 L183.0,291.0 Q182.0,293.0 182.0,303.0 Q182.0,313.0 180.5,315.5 L179.0,318.0 L178.0,316.0 L177.0,314.0 L174.5,316.5 L172.0,319.0 L169.5,317.0 L167.0,315.0 L169.5,302.5 L172.0,290.0 L170.5,291.0 L169.0,292.0 L167.5,288.0 L166.0,284.0 L158.5,283.5 Q151.0,283.0 147.5,284.5 Q144.0,286.0 141.5,288.5 Q139.0,291.0 139.0,295.5 Q139.0,300.0 141.0,302.0 Q143.0,304.0 148.0,304.0 Q153.0,304.0 159.0,299.0 L165.0,294.0 L166.0,295.0 L167.0,296.0 L164.5,301.5 Q162.0,307.0 162.0,313.0 Q162.0,319.0 163.0,321.0 Q164.0,323.0 166.5,324.5 Q169.0,326.0 174.0,326.0 Q179.0,326.0 182.0,323.5 Q185.0,321.0 186.0,318.5 Q187.0,316.0 187.0,301.5 L187.0,287.0 L192.0,285.0 Q197.0,283.0 208.0,282.0 L219.0,281.0 L219.0,279.0 Q219.0,277.0 211.0,272.0 Z M165.0,287.0 L166.0,288.0 L162.0,291.5 Q158.0,295.0 154.5,297.0 Q151.0,299.0 149.5,299.0 Q148.0,299.0 146.0,297.0 L144.0,295.0 L146.5,292.0 Q149.0,289.0 151.0,288.0 Q153.0,287.0 154.5,287.0 Q156.0,287.0 156.5,286.5 Q157.0,286.0 160.5,286.0 Q164.0,286.0 165.0,287.0 Z"/><path fill="#6E3110" fill-rule="evenodd" d="M299.0,269.5 Q290.0,274.0 288.5,275.5 Q287.0,277.0 287.0,279.0 L287.0,281.0 L301.5,282.5 Q316.0,284.0 318.0,285.5 Q320.0,287.0 320.5,302.5 Q321.0,318.0 322.0,320.0 Q323.0,322.0 326.0,324.0 Q329.0,326.0 334.0,326.0 Q339.0,326.0 342.0,323.5 Q345.0,321.0 345.5,315.0 Q346.0,309.0 344.5,304.5 Q343.0,300.0 341.0,297.0 L339.0,294.0 L340.0,293.0 L341.0,292.0 L343.5,295.0 Q346.0,298.0 350.5,301.0 Q355.0,304.0 360.0,304.0 Q365.0,304.0 367.0,302.0 Q369.0,300.0 369.0,295.5 Q369.0,291.0 368.0,289.5 Q367.0,288.0 363.5,286.0 Q360.0,284.0 350.5,284.0 L341.0,284.0 L341.0,287.0 Q341.0,290.0 340.0,291.0 L339.0,292.0 L337.0,290.0 Q335.0,288.0 335.0,285.0 Q335.0,282.0 329.5,279.0 L324.0,276.0 L325.0,275.0 Q326.0,274.0 334.0,274.0 L342.0,274.0 L342.0,271.0 Q342.0,268.0 340.5,266.5 Q339.0,265.0 336.0,264.0 Q333.0,263.0 324.5,263.0 Q316.0,263.0 312.0,264.0 Q308.0,265.0 299.0,269.5 Z M325.0,288.0 L326.0,287.0 L327.0,287.5 Q328.0,288.0 330.5,288.0 Q333.0,288.0 334.0,289.0 Q335.0,290.0 335.0,291.0 Q335.0,292.0 336.0,294.0 Q337.0,296.0 337.0,297.5 Q337.0,299.0 338.5,302.5 Q340.0,306.0 340.0,308.0 Q340.0,310.0 340.5,310.5 Q341.0,311.0 341.0,312.5 Q341.0,314.0 339.0,316.5 Q337.0,319.0 336.5,319.0 Q336.0,319.0 334.0,317.0 Q332.0,315.0 332.0,314.5 L332.0,314.0 L331.0,314.0 L330.0,314.0 L330.5,315.0 L331.0,316.0 L330.0,317.0 L329.0,318.0 L327.5,316.0 Q326.0,314.0 326.0,306.0 Q326.0,298.0 325.5,297.5 Q325.0,297.0 325.0,294.5 Q325.0,292.0 324.5,291.5 Q324.0,291.0 324.0,290.0 Q324.0,289.0 325.0,288.0 Z M344.0,290.5 L341.0,288.0 L342.0,287.0 Q343.0,286.0 347.0,286.0 Q351.0,286.0 351.5,286.5 Q352.0,287.0 353.5,287.0 Q355.0,287.0 357.0,288.0 Q359.0,289.0 361.0,291.0 Q363.0,293.0 363.0,294.5 Q363.0,296.0 361.5,297.5 Q360.0,299.0 358.5,299.0 Q357.0,299.0 352.0,296.0 Q347.0,293.0 344.0,290.5 Z"/><path fill="#6E3110" fill-rule="evenodd" d="M156.5,322.0 Q156.0,322.0 155.0,323.5 Q154.0,325.0 154.0,326.0 Q154.0,327.0 153.0,329.0 Q152.0,331.0 152.0,332.5 Q152.0,334.0 151.5,334.5 Q151.0,335.0 151.0,339.0 Q151.0,343.0 151.5,343.5 Q152.0,344.0 152.0,345.0 Q152.0,346.0 153.5,347.5 Q155.0,349.0 160.0,349.0 Q165.0,349.0 166.0,348.5 Q167.0,348.0 168.0,346.0 Q169.0,344.0 169.0,338.5 Q169.0,333.0 168.5,332.5 Q168.0,332.0 168.0,331.0 L168.0,330.0 L167.0,330.0 L166.0,330.0 L166.0,333.0 Q166.0,336.0 165.5,336.5 Q165.0,337.0 164.5,339.0 Q164.0,341.0 163.0,342.0 Q162.0,343.0 160.5,343.0 Q159.0,343.0 157.5,341.0 Q156.0,339.0 156.0,336.5 Q156.0,334.0 156.5,333.5 Q157.0,333.0 157.0,327.5 L157.0,322.0 L156.5,322.0 Z"/><path fill="#6E3110" fill-rule="evenodd" d="M353.0,324.5 Q352.0,323.0 351.5,323.0 L351.0,323.0 L351.0,329.5 Q351.0,336.0 351.5,337.0 L352.0,338.0 L351.5,338.5 Q351.0,339.0 351.0,340.0 Q351.0,341.0 350.0,342.0 Q349.0,343.0 347.5,343.0 Q346.0,343.0 345.0,342.0 Q344.0,341.0 343.0,339.0 Q342.0,337.0 342.0,334.5 Q342.0,332.0 341.5,331.0 L341.0,330.0 L340.5,330.0 L340.0,330.0 L339.5,331.0 Q339.0,332.0 338.5,337.0 Q338.0,342.0 338.5,342.5 Q339.0,343.0 339.5,345.0 Q340.0,347.0 341.0,348.0 Q342.0,349.0 345.5,349.5 Q349.0,350.0 349.5,349.5 Q350.0,349.0 351.5,349.0 Q353.0,349.0 354.5,347.5 Q356.0,346.0 356.0,345.0 Q356.0,344.0 356.5,343.5 Q357.0,343.0 357.0,339.5 Q357.0,336.0 356.5,335.5 Q356.0,335.0 356.0,333.5 Q356.0,332.0 355.5,331.5 Q355.0,331.0 354.5,328.5 Q354.0,326.0 353.0,324.5 Z"/></g><g id="nose"><path fill="#6E3110" fill-rule="evenodd" d="M254.0,277.0 Q251.0,277.0 250.0,278.5 Q249.0,280.0 249.5,282.0 Q250.0,284.0 250.5,284.5 Q251.0,285.0 253.0,285.0 Q255.0,285.0 256.5,284.0 Q258.0,283.0 258.0,281.0 Q258.0,279.0 257.5,278.0 L257.0,277.0 L254.0,277.0 Z"/></g><g id="mouth"><path fill="#6E3110" fill-rule="evenodd" d="M222.0,307.5 Q218.0,311.0 216.0,315.5 Q214.0,320.0 214.0,328.5 Q214.0,337.0 214.5,339.0 Q215.0,341.0 217.5,345.5 Q220.0,350.0 223.0,353.0 Q226.0,356.0 228.5,357.5 Q231.0,359.0 235.0,360.5 Q239.0,362.0 244.5,362.5 Q250.0,363.0 250.5,363.5 Q251.0,364.0 259.0,363.5 Q267.0,363.0 270.5,362.0 Q274.0,361.0 279.5,358.0 Q285.0,355.0 289.0,350.0 Q293.0,345.0 294.5,339.0 Q296.0,333.0 295.5,326.5 Q295.0,320.0 293.5,316.5 Q292.0,313.0 288.5,309.5 Q285.0,306.0 282.5,304.5 Q280.0,303.0 273.5,301.0 Q267.0,299.0 263.5,299.0 Q260.0,299.0 259.5,298.5 Q259.0,298.0 250.0,298.5 Q241.0,299.0 233.5,301.5 Q226.0,304.0 222.0,307.5 Z M226.0,340.5 Q226.0,337.0 229.0,333.5 Q232.0,330.0 232.5,330.0 Q233.0,330.0 235.5,328.0 Q238.0,326.0 239.0,326.0 Q240.0,326.0 241.5,325.0 Q243.0,324.0 244.5,324.0 Q246.0,324.0 246.5,323.5 Q247.0,323.0 252.0,322.5 Q257.0,322.0 257.5,322.5 Q258.0,323.0 260.0,323.0 Q262.0,323.0 262.5,323.5 Q263.0,324.0 265.5,324.5 Q268.0,325.0 271.0,326.5 Q274.0,328.0 278.0,332.0 Q282.0,336.0 283.0,339.0 L284.0,342.0 L283.5,342.5 Q283.0,343.0 282.5,345.0 Q282.0,347.0 278.5,350.5 Q275.0,354.0 271.0,356.0 Q267.0,358.0 265.5,358.0 Q264.0,358.0 263.5,358.5 Q263.0,359.0 255.5,359.0 Q248.0,359.0 247.5,358.5 Q247.0,358.0 244.0,357.5 Q241.0,357.0 238.0,355.5 Q235.0,354.0 231.0,350.0 Q227.0,346.0 226.5,345.0 Q226.0,344.0 226.0,340.5 Z"/></g><g id="accent"></g></svg>