<svg xmlns="http://www.w3.org/2000/svg" viewBox="0 0 512 512" fill="none"><g id="outline"><path fill="#6E3110" fill-rule="evenodd" d="M267.5,108.5 L260.0,99.0 L258.0,99.0 L256.0,99.0 L257.0,108.0 L258.0,117.0 L242.5,109.5 Q227.0,102.0 223.0,102.5 L219.0,103.0 L219.0,105.0 L219.0,107.0 L227.0,110.5 L235.0,114.0 L235.0,116.0 L235.0,118.0 L212.5,114.5 L190.0,111.0 L189.0,113.5 L188.0,116.0 L195.5,117.5 L203.0,119.0 L203.0,121.0 L203.0,123.0 L183.5,130.0 Q164.0,137.0 150.0,148.0 Q136.0,159.0 126.0,174.5 Q116.0,190.0 112.0,203.0 Q108.0,216.0 108.5,242.5 L109.0,269.0 L99.5,272.0 Q90.0,275.0 83.5,284.5 Q77.0,294.0 77.0,304.5 Q77.0,315.0 82.5,325.5 Q88.0,336.0 99.0,343.0 Q110.0,350.0 122.0,349.0 Q134.0,348.0 153.0,362.0 Q172.0,376.0 173.5,384.5 L175.0,393.0 L183.0,374.5 Q191.0,356.0 202.5,347.5 L214.0,339.0 L214.5,342.5 L215.0,346.0 L207.5,354.0 L200.0,362.0 L211.0,362.5 L222.0,363.0 L223.0,366.5 L224.0,370.0 L217.5,371.0 L211.0,372.0 L217.5,373.5 L224.0,375.0 L226.5,380.0 L229.0,385.0 L227.0,387.5 L225.0,390.0 L221.0,388.0 L217.0,386.0 L215.5,392.5 L214.0,399.0 L204.5,403.0 L195.0,407.0 L195.0,409.5 L195.0,412.0 L204.5,410.5 Q214.0,409.0 226.0,397.0 Q238.0,385.0 262.5,384.5 Q287.0,384.0 312.0,377.5 Q337.0,371.0 348.5,364.0 Q360.0,357.0 369.0,346.5 L378.0,336.0 L387.0,336.0 Q396.0,336.0 404.5,331.5 Q413.0,327.0 419.5,315.5 Q426.0,304.0 426.0,293.0 Q426.0,282.0 422.0,273.5 Q418.0,265.0 412.0,260.5 Q406.0,256.0 397.5,254.5 L389.0,253.0 L387.0,231.0 Q385.0,209.0 374.0,187.0 Q363.0,165.0 345.5,150.0 Q328.0,135.0 301.5,126.5 Q275.0,118.0 267.5,108.5 Z M89.0,313.0 Q86.0,302.0 88.5,295.5 Q91.0,289.0 96.5,284.5 L102.0,280.0 L112.5,282.0 L123.0,284.0 L120.0,272.0 Q117.0,260.0 117.0,243.0 Q117.0,226.0 121.0,211.0 Q125.0,196.0 132.5,183.5 Q140.0,171.0 150.0,161.5 Q160.0,152.0 173.5,144.5 Q187.0,137.0 213.5,131.5 Q240.0,126.0 266.5,128.5 Q293.0,131.0 307.5,137.0 Q322.0,143.0 332.5,151.0 Q343.0,159.0 352.5,170.5 Q362.0,182.0 369.0,198.0 Q376.0,214.0 378.0,224.5 Q380.0,235.0 379.0,252.5 L378.0,270.0 L389.5,267.0 L401.0,264.0 L407.0,269.5 Q413.0,275.0 415.5,282.5 Q418.0,290.0 415.0,301.5 Q412.0,313.0 406.5,318.5 Q401.0,324.0 392.0,326.0 L383.0,328.0 L382.5,311.5 L382.0,295.0 L392.5,289.0 L403.0,283.0 L398.0,282.0 Q393.0,281.0 387.5,283.0 Q382.0,285.0 378.0,289.0 L374.0,293.0 L374.5,302.5 Q375.0,312.0 372.5,320.0 Q370.0,328.0 359.5,340.0 Q349.0,352.0 332.0,360.5 Q315.0,369.0 289.5,373.5 Q264.0,378.0 250.5,378.0 L237.0,378.0 L233.5,370.0 Q230.0,362.0 224.5,358.5 L219.0,355.0 L220.5,346.5 L222.0,338.0 L219.5,335.5 L217.0,333.0 L206.5,336.0 Q196.0,339.0 185.0,352.0 L174.0,365.0 L169.0,362.5 Q164.0,360.0 152.5,349.5 Q141.0,339.0 135.5,321.5 Q130.0,304.0 124.0,300.5 Q118.0,297.0 111.5,297.0 L105.0,297.0 L102.5,300.0 L100.0,303.0 L106.5,303.0 Q113.0,303.0 118.5,306.0 L124.0,309.0 L126.5,324.5 L129.0,340.0 L119.0,340.0 Q109.0,340.0 100.5,332.0 Q92.0,324.0 89.0,313.0 Z"/><path fill="#6E3110" fill-rule="evenodd" d="M401.0,192.0 L397.0,192.0 L395.5,194.0 Q394.0,196.0 394.0,198.0 Q394.0,200.0 394.5,200.5 Q395.0,201.0 395.0,202.0 L395.0,203.0 L396.5,204.0 Q398.0,205.0 401.0,205.0 Q404.0,205.0 405.0,204.5 Q406.0,204.0 407.0,203.0 Q408.0,202.0 408.0,198.5 Q408.0,195.0 406.5,193.5 Q405.0,192.0 401.0,192.0 Z"/></g><g id="hair"><path fill="#6E3110" fill-rule="evenodd" d="M257.5,139.5 L256.0,136.0 L255.0,136.0 Q254.0,136.0 253.5,136.5 Q253.0,137.0 253.0,143.0 Q253.0,149.0 252.5,149.5 Q252.0,150.0 252.0,151.5 Q252.0,153.0 250.5,156.0 Q249.0,159.0 247.0,161.0 Q245.0,163.0 245.0,164.0 L245.0,165.0 L248.0,165.0 Q251.0,165.0 253.0,163.5 Q255.0,162.0 256.5,159.5 Q258.0,157.0 258.0,156.0 Q258.0,155.0 258.5,154.5 Q259.0,154.0 259.0,148.5 Q259.0,143.0 257.5,139.5 Z"/><path fill="#6E3110" fill-rule="evenodd" d="M238.5,138.0 L238.0,137.0 L237.0,137.0 Q236.0,137.0 235.5,137.5 Q235.0,138.0 234.5,141.0 Q234.0,144.0 231.5,150.0 Q229.0,156.0 224.0,161.5 Q219.0,167.0 219.0,168.0 L219.0,169.0 L222.5,169.0 Q226.0,169.0 228.0,168.0 Q230.0,167.0 233.0,164.0 Q236.0,161.0 237.0,159.0 Q238.0,157.0 238.0,155.5 Q238.0,154.0 238.5,153.5 Q239.0,153.0 239.0,146.0 Q239.0,139.0 238.5,138.0 Z"/><path fill="#6E3110" fill-rule="evenodd" d="M217.5,141.0 L217.0,140.0 L215.5,140.0 L214.0,140.0 L213.5,142.0 Q213.0,144.0 211.0,148.0 Q209.0,152.0 207.5,153.5 Q206.0,155.0 206.0,155.5 Q206.0,156.0 200.5,161.0 Q195.0,166.0 195.0,167.0 L195.0,168.0 L199.0,168.0 Q203.0,168.0 206.0,166.5 Q209.0,165.0 211.5,162.5 Q214.0,160.0 214.0,159.5 Q214.0,159.0 215.0,158.0 Q216.0,157.0 216.0,156.0 Q216.0,155.0 217.0,153.0 Q218.0,151.0 218.0,146.5 Q218.0,142.0 217.5,141.0 Z"/></g><g id="brows"><path fill="#6E3110" fill-rule="evenodd" d="M293.0,233.5 Q290.0,236.0 290.0,237.5 L290.0,239.0 L292.5,239.0 Q295.0,239.0 295.5,238.5 Q296.0,238.0 297.5,238.0 Q299.0,238.0 299.5,237.5 Q300.0,237.0 301.5,237.0 Q303.0,237.0 303.5,236.5 Q304.0,236.0 309.0,236.0 Q314.0,236.0 314.5,236.5 Q315.0,237.0 316.5,237.0 Q318.0,237.0 318.5,237.5 Q319.0,238.0 321.5,238.5 Q324.0,239.0 327.0,240.5 Q330.0,242.0 331.5,242.0 L333.0,242.0 L333.0,240.0 Q333.0,238.0 331.0,236.0 Q329.0,234.0 325.5,232.0 Q322.0,230.0 321.0,230.0 Q320.0,230.0 319.5,229.5 Q319.0,229.0 317.0,229.0 Q315.0,229.0 314.5,228.5 Q314.0,228.0 310.0,228.0 Q306.0,228.0 305.5,228.5 Q305.0,229.0 303.0,229.0 Q301.0,229.0 299.5,230.0 Q298.0,231.0 297.0,231.0 Q296.0,231.0 293.0,233.5 Z"/><path fill="#6E3110" fill-rule="evenodd" d="M204.0,238.5 L204.0,235.0 L202.5,235.0 Q201.0,235.0 197.0,238.0 Q193.0,241.0 191.0,242.0 Q189.0,243.0 188.0,243.0 Q187.0,243.0 185.5,244.0 Q184.0,245.0 180.0,245.5 Q176.0,246.0 175.5,246.5 Q175.0,247.0 170.5,247.0 Q166.0,247.0 165.5,247.5 Q165.0,248.0 165.0,250.0 L165.0,252.0 L166.0,252.5 Q167.0,253.0 176.5,253.0 Q186.0,253.0 186.5,252.5 Q187.0,252.0 190.0,251.5 Q193.0,251.0 197.5,248.0 Q202.0,245.0 202.0,244.5 Q202.0,244.0 203.0,243.0 Q204.0,242.0 204.0,238.5 Z"/></g><g id="eyes"><path fill="#6E3110" fill-rule="evenodd" d="M302.0,249.5 Q299.0,250.0 298.0,250.5 Q297.0,251.0 294.0,254.0 Q291.0,257.0 289.5,260.5 Q288.0,264.0 288.0,269.0 Q288.0,274.0 290.0,278.5 Q292.0,283.0 293.5,284.5 Q295.0,286.0 299.0,288.0 Q303.0,290.0 310.0,290.0 Q317.0,290.0 317.5,289.5 Q318.0,289.0 319.0,289.0 Q320.0,289.0 321.0,288.0 Q322.0,287.0 324.0,286.0 Q326.0,285.0 328.5,280.0 Q331.0,275.0 331.0,270.0 Q331.0,265.0 329.5,261.5 Q328.0,258.0 326.0,255.5 Q324.0,253.0 320.5,251.0 Q317.0,249.0 311.5,248.5 Q306.0,248.0 305.5,248.5 Q305.0,249.0 302.0,249.5 Z M313.0,258.5 L316.0,256.0 L317.0,256.5 Q318.0,257.0 320.0,259.5 Q322.0,262.0 322.0,262.5 Q322.0,263.0 319.5,265.5 Q317.0,268.0 316.0,268.0 Q315.0,268.0 312.5,265.5 Q310.0,263.0 310.0,262.0 Q310.0,261.0 313.0,258.5 Z"/><path fill="#6E3110" fill-rule="evenodd" d="M189.5,257.5 Q184.0,258.0 180.5,260.0 Q177.0,262.0 174.5,265.5 Q172.0,269.0 172.0,270.0 Q172.0,271.0 171.5,271.5 Q171.0,272.0 171.0,278.5 Q171.0,285.0 171.5,285.5 Q172.0,286.0 172.0,287.0 Q172.0,288.0 173.5,290.5 Q175.0,293.0 176.5,294.5 Q178.0,296.0 182.5,298.0 Q187.0,300.0 192.5,300.0 Q198.0,300.0 198.5,299.5 Q199.0,299.0 201.5,298.5 Q204.0,298.0 207.0,295.5 Q210.0,293.0 211.5,290.5 Q213.0,288.0 213.0,286.5 Q213.0,285.0 213.5,284.5 Q214.0,284.0 214.0,278.5 Q214.0,273.0 213.5,272.5 Q213.0,272.0 213.0,271.0 Q213.0,270.0 211.5,267.5 Q210.0,265.0 208.5,263.5 Q207.0,262.0 203.5,260.0 Q200.0,258.0 198.0,258.0 Q196.0,258.0 195.5,257.5 Q195.0,257.0 189.5,257.5 Z M196.0,267.5 Q198.0,266.0 199.5,266.0 Q201.0,266.0 203.0,268.0 Q205.0,270.0 205.0,271.5 Q205.0,273.0 203.0,275.0 Q201.0,277.0 199.5,277.0 Q198.0,277.0 195.5,274.0 L193.0,271.0 L193.5,270.0 Q194.0,269.0 196.0,267.5 Z"/></g><g id="nose"><path fill="#6E3110" fill-rule="evenodd" d="M251.5,280.0 Q249.0,280.0 248.0,281.0 Q247.0,282.0 247.0,284.5 Q247.0,287.0 247.5,288.0 L248.0,289.0 L251.5,289.0 Q255.0,289.0 255.5,288.5 Q256.0,288.0 256.0,285.0 Q256.0,282.0 255.0,281.0 Q254.0,280.0 251.5,280.0 Z"/></g><g id="mouth"><path fill="#6E3110" fill-rule="evenodd" d="M281.0,319.5 Q281.0,317.0 279.5,315.0 Q278.0,313.0 274.0,311.0 Q270.0,309.0 268.0,309.0 Q266.0,309.0 265.5,308.5 Q265.0,308.0 261.5,308.0 Q258.0,308.0 257.5,308.5 Q257.0,309.0 255.0,309.0 Q253.0,309.0 247.5,311.5 Q242.0,314.0 240.5,315.5 Q239.0,317.0 238.5,317.0 Q238.0,317.0 236.0,319.0 Q234.0,321.0 233.0,323.0 Q232.0,325.0 232.0,326.5 L232.0,328.0 L234.5,328.0 Q237.0,328.0 241.5,324.0 Q246.0,320.0 247.5,319.5 Q249.0,319.0 250.0,318.0 Q251.0,317.0 252.0,317.0 Q253.0,317.0 254.5,316.0 Q256.0,315.0 257.5,315.0 Q259.0,315.0 259.5,314.5 Q260.0,314.0 264.5,315.0 Q269.0,316.0 272.5,319.0 Q276.0,322.0 278.5,322.0 L281.0,322.0 L281.0,319.5 Z"/></g><g id="accent"><path fill="#6E3110" fill-rule="evenodd" d="M423.5,141.5 Q421.0,140.0 417.5,139.5 Q414.0,139.0 413.5,138.5 Q413.0,138.0 409.0,138.0 Q405.0,138.0 399.5,140.0 Q394.0,142.0 391.5,145.0 Q389.0,148.0 388.5,149.5 Q388.0,151.0 388.0,154.0 Q388.0,157.0 388.5,158.0 Q389.0,159.0 390.5,160.0 Q392.0,161.0 394.5,161.0 Q397.0,161.0 398.0,160.0 Q399.0,159.0 399.0,156.5 Q399.0,154.0 402.5,151.0 Q406.0,148.0 409.5,148.0 Q413.0,148.0 415.0,149.0 Q417.0,150.0 419.5,152.5 Q422.0,155.0 422.5,156.5 Q423.0,158.0 422.5,160.0 Q422.0,162.0 419.0,165.0 Q416.0,168.0 411.5,169.5 Q407.0,171.0 404.0,173.5 Q401.0,176.0 400.5,177.0 Q400.0,178.0 400.0,182.0 Q400.0,186.0 400.5,186.5 Q401.0,187.0 405.0,187.0 L409.0,187.0 L409.5,185.0 Q410.0,183.0 411.5,181.5 Q413.0,180.0 420.5,177.0 Q428.0,174.0 431.0,170.5 Q434.0,167.0 434.0,159.5 Q434.0,152.0 430.0,147.5 Q426.0,143.0 423.5,141.5 Z"/></g></svg>