<svg xmlns="http://www.w3.org/2000/svg" viewBox="0 0 512 512" fill="none"><g id="outline"><path fill="#6E3110" fill-rule="evenodd" d="M272.0,121.0 L264.0,111.0 L262.0,111.5 L260.0,112.0 L261.5,121.0 L263.0,130.0 L251.0,122.5 Q239.0,115.0 232.0,114.0 Q225.0,113.0 223.0,114.5 L221.0,116.0 L230.0,120.5 L239.0,125.0 L239.5,127.5 L240.0,130.0 L226.0,127.0 Q212.0,124.0 204.5,124.5 Q197.0,125.0 195.5,126.5 L194.0,128.0 L200.0,129.5 L206.0,131.0 L206.0,133.0 L206.0,135.0 L194.0,138.5 Q182.0,142.0 166.0,151.5 Q150.0,161.0 139.5,172.5 Q129.0,184.0 122.5,196.5 Q116.0,209.0 113.0,221.5 Q110.0,234.0 110.5,252.0 L111.0,270.0 L100.0,274.0 Q89.0,278.0 83.0,287.5 Q77.0,297.0 77.0,308.5 Q77.0,320.0 85.5,333.5 Q94.0,347.0 102.5,351.0 Q111.0,355.0 121.0,354.5 Q131.0,354.0 141.5,364.0 Q152.0,374.0 164.0,380.5 Q176.0,387.0 201.5,393.5 Q227.0,400.0 256.0,400.0 Q285.0,400.0 309.0,394.0 Q333.0,388.0 347.5,380.0 Q362.0,372.0 371.0,363.0 L380.0,354.0 L386.5,355.0 Q393.0,356.0 403.0,353.0 Q413.0,350.0 419.0,344.5 Q425.0,339.0 429.5,330.0 Q434.0,321.0 434.0,309.0 Q434.0,297.0 430.0,289.5 Q426.0,282.0 419.5,277.5 Q413.0,273.0 405.5,271.5 L398.0,270.0 L398.0,255.0 Q398.0,240.0 395.5,228.5 Q393.0,217.0 381.5,196.0 Q370.0,175.0 359.5,165.5 Q349.0,156.0 335.5,148.5 Q322.0,141.0 301.0,136.0 Q280.0,131.0 272.0,121.0 Z M88.0,315.5 Q86.0,305.0 87.5,299.5 Q89.0,294.0 93.5,289.0 Q98.0,284.0 101.5,282.5 Q105.0,281.0 114.5,282.5 L124.0,284.0 L121.5,270.0 Q119.0,256.0 120.5,240.5 Q122.0,225.0 128.0,210.5 Q134.0,196.0 145.0,183.0 Q156.0,170.0 180.0,157.5 Q204.0,145.0 235.0,142.0 Q266.0,139.0 291.5,144.5 Q317.0,150.0 338.5,165.0 Q360.0,180.0 367.5,190.5 Q375.0,201.0 380.5,216.0 Q386.0,231.0 387.5,244.5 Q389.0,258.0 387.0,271.5 L385.0,285.0 L392.0,283.0 Q399.0,281.0 406.0,282.5 Q413.0,284.0 418.0,290.5 Q423.0,297.0 424.0,305.0 Q425.0,313.0 422.5,320.5 Q420.0,328.0 413.5,335.0 Q407.0,342.0 396.5,344.0 L386.0,346.0 L387.5,330.5 L389.0,315.0 L394.5,311.0 Q400.0,307.0 406.5,306.0 L413.0,305.0 L409.0,302.5 Q405.0,300.0 398.5,301.0 Q392.0,302.0 386.0,306.5 L380.0,311.0 L379.0,322.5 Q378.0,334.0 374.0,341.5 Q370.0,349.0 357.5,360.0 Q345.0,371.0 324.0,379.0 Q303.0,387.0 274.0,389.5 Q245.0,392.0 221.0,388.0 Q197.0,384.0 178.0,375.0 Q159.0,366.0 148.0,354.5 Q137.0,343.0 133.5,327.0 Q130.0,311.0 124.0,306.5 Q118.0,302.0 109.5,301.5 L101.0,301.0 L99.0,303.0 L97.0,305.0 L104.5,306.5 Q112.0,308.0 116.5,311.5 Q121.0,315.0 124.0,329.5 L127.0,344.0 L123.5,345.5 Q120.0,347.0 113.0,345.0 Q106.0,343.0 98.0,334.5 Q90.0,326.0 88.0,315.5 Z"/></g><g id="hair"><path fill="#6E3110" fill-rule="evenodd" d="M258.5,155.0 L257.0,152.0 L256.0,152.0 L255.0,152.0 L255.0,156.5 Q255.0,161.0 254.5,161.5 Q254.0,162.0 254.0,164.0 Q254.0,166.0 253.5,166.5 Q253.0,167.0 252.5,169.5 Q252.0,172.0 250.0,175.5 Q248.0,179.0 248.0,180.5 L248.0,182.0 L249.5,182.0 Q251.0,182.0 252.0,181.5 Q253.0,181.0 255.0,179.0 Q257.0,177.0 258.5,173.5 Q260.0,170.0 260.0,164.0 Q260.0,158.0 258.5,155.0 Z"/><path fill="#6E3110" fill-rule="evenodd" d="M237.0,156.0 L236.0,154.0 L235.0,154.0 L234.0,154.0 L234.0,156.0 Q234.0,158.0 233.5,158.5 Q233.0,159.0 233.0,161.0 Q233.0,163.0 232.5,163.5 Q232.0,164.0 231.5,166.5 Q231.0,169.0 228.0,174.5 Q225.0,180.0 222.5,182.5 Q220.0,185.0 220.0,186.5 L220.0,188.0 L221.0,187.5 Q222.0,187.0 224.0,187.0 Q226.0,187.0 228.5,185.5 Q231.0,184.0 232.5,182.5 Q234.0,181.0 235.5,178.5 Q237.0,176.0 237.0,175.0 Q237.0,174.0 237.5,173.5 Q238.0,173.0 238.0,165.5 Q238.0,158.0 237.0,156.0 Z"/><path fill="#6E3110" fill-rule="evenodd" d="M216.5,157.5 Q216.0,157.0 215.0,157.0 L214.0,157.0 L213.5,159.0 Q213.0,161.0 210.0,167.0 Q207.0,173.0 201.0,179.5 Q195.0,186.0 195.0,186.5 L195.0,187.0 L197.5,187.0 Q200.0,187.0 200.5,186.5 Q201.0,186.0 202.0,186.0 Q203.0,186.0 205.0,185.0 Q207.0,184.0 209.5,182.0 Q212.0,180.0 214.5,175.5 Q217.0,171.0 217.0,164.5 Q217.0,158.0 216.5,157.5 Z"/></g><g id="brows"><path fill="#6E3110" fill-rule="evenodd" d="M208.0,256.0 Q208.0,255.0 207.0,253.5 Q206.0,252.0 202.0,250.0 Q198.0,248.0 196.0,248.0 Q194.0,248.0 193.5,247.5 Q193.0,247.0 187.5,247.5 Q182.0,248.0 181.5,248.5 Q181.0,249.0 179.5,249.0 Q178.0,249.0 174.5,251.0 Q171.0,253.0 168.0,256.0 Q165.0,259.0 164.0,261.0 Q163.0,263.0 163.0,264.0 L163.0,265.0 L165.0,264.5 Q167.0,264.0 168.5,262.5 Q170.0,261.0 171.5,260.5 Q173.0,260.0 174.0,259.0 Q175.0,258.0 176.0,258.0 Q177.0,258.0 178.5,257.0 Q180.0,256.0 181.5,256.0 Q183.0,256.0 183.5,255.5 Q184.0,255.0 187.5,255.0 Q191.0,255.0 191.5,254.5 L192.0,254.0 L192.5,254.5 Q193.0,255.0 196.5,255.0 Q200.0,255.0 200.5,255.5 Q201.0,256.0 203.0,256.0 Q205.0,256.0 205.5,256.5 Q206.0,257.0 207.0,257.0 L208.0,257.0 L208.0,256.0 Z"/><path fill="#6E3110" fill-rule="evenodd" d="M299.5,252.0 Q297.0,254.0 297.0,255.5 L297.0,257.0 L298.0,257.0 Q299.0,257.0 299.5,256.5 Q300.0,256.0 302.0,256.0 Q304.0,256.0 304.5,255.5 Q305.0,255.0 308.0,255.0 Q311.0,255.0 311.5,254.5 Q312.0,254.0 317.0,254.5 Q322.0,255.0 329.0,258.0 Q336.0,261.0 337.5,262.5 Q339.0,264.0 340.5,264.0 L342.0,264.0 L341.5,262.0 Q341.0,260.0 338.5,257.0 Q336.0,254.0 330.0,251.0 Q324.0,248.0 322.0,248.0 Q320.0,248.0 319.5,247.5 Q319.0,247.0 315.5,247.0 Q312.0,247.0 311.5,247.5 Q311.0,248.0 309.0,248.0 Q307.0,248.0 306.5,248.5 Q306.0,249.0 304.0,249.5 Q302.0,250.0 299.5,252.0 Z"/></g><g id="eyes"><path fill="#6E3110" fill-rule="evenodd" d="M157.5,292.0 Q157.0,293.0 157.0,294.0 Q157.0,295.0 158.0,296.5 Q159.0,298.0 161.0,298.0 Q163.0,298.0 165.0,297.0 Q167.0,296.0 171.5,295.5 Q176.0,295.0 177.0,296.0 L178.0,297.0 L177.5,297.5 Q177.0,298.0 177.0,300.0 Q177.0,302.0 177.5,302.5 Q178.0,303.0 178.0,306.0 Q178.0,309.0 179.0,310.5 Q180.0,312.0 181.5,312.0 Q183.0,312.0 183.5,311.5 Q184.0,311.0 193.5,311.0 Q203.0,311.0 203.5,311.5 Q204.0,312.0 206.0,312.0 Q208.0,312.0 208.5,312.5 Q209.0,313.0 212.0,313.0 L215.0,313.0 L215.0,312.0 Q215.0,311.0 216.0,309.0 Q217.0,307.0 217.0,305.5 Q217.0,304.0 218.0,303.0 Q219.0,302.0 220.5,302.0 L222.0,302.0 L221.5,300.0 Q221.0,298.0 217.5,295.5 Q214.0,293.0 212.0,292.0 Q210.0,291.0 207.5,290.5 Q205.0,290.0 204.5,289.5 Q204.0,289.0 202.5,289.0 Q201.0,289.0 200.5,288.5 Q200.0,288.0 197.0,288.0 Q194.0,288.0 193.5,287.5 Q193.0,287.0 183.5,287.0 Q174.0,287.0 173.5,287.5 Q173.0,288.0 170.0,288.0 Q167.0,288.0 166.5,288.5 Q166.0,289.0 163.0,289.5 Q160.0,290.0 159.0,290.5 Q158.0,291.0 157.5,292.0 Z M203.0,296.5 L205.0,295.0 L207.0,297.0 Q209.0,299.0 209.0,299.5 Q209.0,300.0 207.5,301.5 Q206.0,303.0 204.5,303.0 Q203.0,303.0 202.0,302.0 Q201.0,301.0 201.0,299.5 Q201.0,298.0 203.0,296.5 Z"/><path fill="#6E3110" fill-rule="evenodd" d="M285.0,300.5 L285.0,302.0 L286.5,302.0 Q288.0,302.0 288.5,301.5 L289.0,301.0 L290.0,302.0 Q291.0,303.0 291.5,306.0 Q292.0,309.0 293.0,311.0 L294.0,313.0 L296.5,313.0 Q299.0,313.0 299.5,312.5 Q300.0,312.0 301.0,312.0 Q302.0,312.0 302.5,311.5 Q303.0,311.0 305.0,311.0 Q307.0,311.0 307.5,310.5 Q308.0,310.0 315.5,310.0 Q323.0,310.0 323.5,310.5 Q324.0,311.0 327.5,311.5 L331.0,312.0 L331.5,310.0 Q332.0,308.0 332.5,307.5 Q333.0,307.0 333.0,302.0 Q333.0,297.0 334.0,296.0 L335.0,295.0 L337.5,296.0 Q340.0,297.0 344.0,297.5 L348.0,298.0 L348.5,297.0 Q349.0,296.0 349.0,294.0 L349.0,292.0 L346.0,290.5 Q343.0,289.0 341.5,289.0 Q340.0,289.0 339.5,288.5 Q339.0,288.0 336.0,288.0 Q333.0,288.0 332.5,287.5 Q332.0,287.0 322.5,287.0 Q313.0,287.0 312.5,287.5 Q312.0,288.0 309.5,288.0 Q307.0,288.0 306.5,288.5 Q306.0,289.0 302.5,289.5 Q299.0,290.0 297.5,291.0 Q296.0,292.0 294.0,292.5 Q292.0,293.0 291.0,294.0 Q290.0,295.0 288.0,296.0 Q286.0,297.0 285.5,298.0 Q285.0,299.0 285.0,300.5 Z M318.0,296.0 L320.0,294.0 L321.5,294.5 Q323.0,295.0 324.0,296.0 Q325.0,297.0 325.0,298.5 Q325.0,300.0 323.0,301.5 L321.0,303.0 L318.5,301.0 Q316.0,299.0 316.0,298.5 Q316.0,298.0 318.0,296.0 Z"/></g><g id="nose"><path fill="#6E3110" fill-rule="evenodd" d="M249.5,306.0 Q248.0,307.0 248.0,309.5 Q248.0,312.0 249.0,313.0 Q250.0,314.0 252.5,314.0 Q255.0,314.0 256.0,313.5 L257.0,313.0 L257.0,310.0 Q257.0,307.0 255.5,306.0 Q254.0,305.0 252.5,305.0 Q251.0,305.0 249.5,306.0 Z"/></g><g id="mouth"><path fill="#6E3110" fill-rule="evenodd" d="M293.0,329.0 L293.0,326.0 L291.0,325.0 Q289.0,324.0 286.5,324.0 Q284.0,324.0 283.5,323.5 Q283.0,323.0 282.0,323.0 Q281.0,323.0 280.5,323.5 Q280.0,324.0 280.5,326.0 Q281.0,328.0 279.5,329.5 Q278.0,331.0 274.0,333.0 Q270.0,335.0 269.0,335.0 Q268.0,335.0 264.5,336.5 Q261.0,338.0 258.5,338.0 Q256.0,338.0 255.5,338.5 Q255.0,339.0 250.5,339.0 Q246.0,339.0 245.5,338.5 Q245.0,338.0 242.5,338.0 Q240.0,338.0 239.5,337.5 Q239.0,337.0 236.5,336.5 Q234.0,336.0 230.5,334.0 Q227.0,332.0 225.0,332.0 L223.0,332.0 L223.0,333.5 Q223.0,335.0 224.0,337.0 L225.0,339.0 L225.5,339.0 Q226.0,339.0 227.5,340.5 Q229.0,342.0 232.5,343.5 Q236.0,345.0 237.5,345.0 Q239.0,345.0 239.5,345.5 Q240.0,346.0 243.0,346.0 Q246.0,346.0 246.5,346.5 Q247.0,347.0 254.5,346.5 Q262.0,346.0 262.5,345.5 Q263.0,345.0 264.5,345.0 Q266.0,345.0 266.5,344.5 Q267.0,344.0 268.0,344.0 Q269.0,344.0 272.5,342.5 Q276.0,341.0 279.0,338.5 Q282.0,336.0 282.5,336.0 Q283.0,336.0 285.0,333.5 L287.0,331.0 L288.0,331.5 Q289.0,332.0 291.0,332.0 L293.0,332.0 L293.0,329.0 Z"/></g><g id="accent"></g></svg>