<svg xmlns="http://www.w3.org/2000/svg" viewBox="0 0 512 512" fill="none"><g id="outline"><path fill="#6E3110" fill-rule="evenodd" d="M270.5,121.0 L263.0,111.0 L260.5,111.5 L258.0,112.0 L260.0,121.0 L262.0,130.0 L250.5,123.5 Q239.0,117.0 229.0,116.0 L219.0,115.0 L219.0,117.0 L219.0,119.0 L228.0,122.5 L237.0,126.0 L236.5,128.5 L236.0,131.0 L224.5,129.0 Q213.0,127.0 203.0,128.0 L193.0,129.0 L192.5,130.5 L192.0,132.0 L196.5,132.5 L201.0,133.0 L201.0,135.0 L201.0,137.0 L186.0,142.5 Q171.0,148.0 159.0,156.5 Q147.0,165.0 139.5,173.5 Q132.0,182.0 125.0,195.0 Q118.0,208.0 114.5,222.5 Q111.0,237.0 111.0,253.5 L111.0,270.0 L100.5,273.0 Q90.0,276.0 83.5,285.0 Q77.0,294.0 77.0,306.5 Q77.0,319.0 81.0,327.0 Q85.0,335.0 91.5,341.0 Q98.0,347.0 106.5,350.0 Q115.0,353.0 122.5,352.5 L130.0,352.0 L139.0,362.0 Q148.0,372.0 160.5,379.0 Q173.0,386.0 199.0,392.5 Q225.0,399.0 256.5,399.0 Q288.0,399.0 310.0,394.0 Q332.0,389.0 348.0,380.5 Q364.0,372.0 372.5,362.0 L381.0,352.0 L389.0,352.5 Q397.0,353.0 406.0,349.5 Q415.0,346.0 420.5,340.5 Q426.0,335.0 430.0,327.0 Q434.0,319.0 434.0,307.0 Q434.0,295.0 430.5,288.5 Q427.0,282.0 422.0,278.0 Q417.0,274.0 407.5,272.0 L398.0,270.0 L398.5,259.0 Q399.0,248.0 396.5,233.5 Q394.0,219.0 383.0,198.0 Q372.0,177.0 362.0,167.5 Q352.0,158.0 338.0,150.0 Q324.0,142.0 301.0,136.5 Q278.0,131.0 270.5,121.0 Z M87.5,314.0 Q85.0,303.0 91.0,293.0 Q97.0,283.0 103.0,281.5 Q109.0,280.0 115.5,282.0 L122.0,284.0 L120.5,264.0 Q119.0,244.0 121.0,233.5 Q123.0,223.0 129.0,209.0 Q135.0,195.0 147.5,181.0 Q160.0,167.0 181.5,156.0 Q203.0,145.0 234.0,141.5 Q265.0,138.0 292.0,144.0 Q319.0,150.0 332.0,157.5 Q345.0,165.0 354.5,174.0 Q364.0,183.0 372.0,195.5 Q380.0,208.0 384.0,220.5 Q388.0,233.0 387.5,258.0 L387.0,283.0 L399.5,282.5 Q412.0,282.0 417.0,287.0 Q422.0,292.0 424.0,300.5 Q426.0,309.0 419.5,322.0 Q413.0,335.0 405.5,339.5 Q398.0,344.0 392.5,344.5 L387.0,345.0 L387.5,330.0 L388.0,315.0 L393.5,310.5 Q399.0,306.0 406.5,304.5 L414.0,303.0 L407.0,301.0 Q400.0,299.0 392.0,303.0 L384.0,307.0 L378.5,327.0 Q373.0,347.0 364.5,356.5 Q356.0,366.0 347.0,371.5 Q338.0,377.0 319.0,382.5 Q300.0,388.0 277.0,390.0 Q254.0,392.0 228.0,389.0 Q202.0,386.0 183.5,379.0 Q165.0,372.0 152.5,360.5 Q140.0,349.0 135.5,338.0 Q131.0,327.0 131.0,319.5 L131.0,312.0 L123.0,306.0 Q115.0,300.0 108.0,300.0 L101.0,300.0 L99.0,302.5 L97.0,305.0 L103.0,305.0 Q109.0,305.0 115.5,309.5 Q122.0,314.0 124.5,328.5 L127.0,343.0 L117.5,342.5 Q108.0,342.0 99.0,333.5 Q90.0,325.0 87.5,314.0 Z"/></g><g id="hair"><path fill="#6E3110" fill-rule="evenodd" d="M226.5,154.0 L226.0,153.0 L224.5,153.0 Q223.0,153.0 222.5,153.5 Q222.0,154.0 221.5,156.0 Q221.0,158.0 220.0,160.0 Q219.0,162.0 218.0,163.0 Q217.0,164.0 216.5,165.5 Q216.0,167.0 215.0,168.0 Q214.0,169.0 214.0,169.5 Q214.0,170.0 209.5,174.5 Q205.0,179.0 205.0,180.5 L205.0,182.0 L207.5,182.0 Q210.0,182.0 210.5,181.5 Q211.0,181.0 212.0,181.0 Q213.0,181.0 215.0,180.0 Q217.0,179.0 220.0,176.0 Q223.0,173.0 224.0,171.0 Q225.0,169.0 225.0,168.0 Q225.0,167.0 225.5,166.5 Q226.0,166.0 226.0,164.0 Q226.0,162.0 226.5,161.5 Q227.0,161.0 227.0,158.0 Q227.0,155.0 226.5,154.0 Z"/><path fill="#6E3110" fill-rule="evenodd" d="M266.0,154.5 Q265.0,153.0 263.5,153.0 L262.0,153.0 L262.0,157.0 Q262.0,161.0 261.5,161.5 Q261.0,162.0 261.0,164.0 Q261.0,166.0 259.0,170.5 Q257.0,175.0 256.0,176.0 Q255.0,177.0 255.0,178.0 L255.0,179.0 L256.5,179.0 Q258.0,179.0 259.0,178.5 Q260.0,178.0 262.5,175.5 Q265.0,173.0 266.0,171.0 Q267.0,169.0 267.0,162.5 Q267.0,156.0 266.0,154.5 Z"/><path fill="#6E3110" fill-rule="evenodd" d="M245.5,154.5 Q245.0,154.0 243.5,154.0 L242.0,154.0 L242.0,155.5 Q242.0,157.0 241.5,157.5 Q241.0,158.0 240.0,162.0 Q239.0,166.0 236.5,170.5 Q234.0,175.0 230.5,178.5 Q227.0,182.0 227.0,183.0 L227.0,184.0 L230.0,184.0 Q233.0,184.0 236.0,182.5 Q239.0,181.0 241.5,178.0 Q244.0,175.0 244.5,173.0 Q245.0,171.0 245.5,170.5 Q246.0,170.0 246.0,168.0 Q246.0,166.0 246.5,165.5 Q247.0,165.0 246.5,160.0 Q246.0,155.0 245.5,154.5 Z"/></g><g id="brows"><path fill="#6E3110" fill-rule="evenodd" d="M204.0,247.5 L204.0,245.0 L202.5,245.0 Q201.0,245.0 199.0,246.0 Q197.0,247.0 196.0,248.0 Q195.0,249.0 192.5,250.0 Q190.0,251.0 189.0,252.0 Q188.0,253.0 186.0,253.5 Q184.0,254.0 181.5,255.5 Q179.0,257.0 178.0,257.0 Q177.0,257.0 173.5,258.5 Q170.0,260.0 167.0,260.5 L164.0,261.0 L164.0,262.0 L164.0,263.0 L165.5,263.0 Q167.0,263.0 167.5,263.5 Q168.0,264.0 173.5,264.0 Q179.0,264.0 179.5,263.5 Q180.0,263.0 182.0,263.0 Q184.0,263.0 184.5,262.5 Q185.0,262.0 187.5,261.5 Q190.0,261.0 194.5,258.5 Q199.0,256.0 201.0,254.0 Q203.0,252.0 203.5,251.0 Q204.0,250.0 204.0,247.5 Z"/><path fill="#6E3110" fill-rule="evenodd" d="M306.5,245.0 L305.0,245.0 L305.0,248.0 Q305.0,251.0 307.5,253.5 Q310.0,256.0 314.5,258.5 Q319.0,261.0 320.0,261.0 Q321.0,261.0 323.0,262.0 Q325.0,263.0 327.0,263.0 Q329.0,263.0 329.5,263.5 Q330.0,264.0 336.0,264.0 Q342.0,264.0 342.5,263.5 Q343.0,263.0 344.0,263.0 L345.0,263.0 L345.0,262.0 L345.0,261.0 L342.0,260.5 Q339.0,260.0 338.5,259.5 Q338.0,259.0 334.0,258.0 Q330.0,257.0 328.5,256.0 Q327.0,255.0 326.0,255.0 Q325.0,255.0 321.0,253.0 Q317.0,251.0 316.0,250.0 Q315.0,249.0 313.5,248.5 Q312.0,248.0 310.0,246.5 Q308.0,245.0 306.5,245.0 Z"/></g><g id="eyes"><path fill="#6E3110" fill-rule="evenodd" d="M210.5,278.5 Q208.0,276.0 204.5,274.5 Q201.0,273.0 194.0,273.0 Q187.0,273.0 181.0,276.0 Q175.0,279.0 171.5,283.0 Q168.0,287.0 166.5,291.0 Q165.0,295.0 165.5,299.5 Q166.0,304.0 167.0,305.0 Q168.0,306.0 169.0,306.0 L170.0,306.0 L170.0,302.5 Q170.0,299.0 171.0,298.0 L172.0,297.0 L173.0,298.0 Q174.0,299.0 174.5,301.0 Q175.0,303.0 176.5,305.5 L178.0,308.0 L175.0,310.5 Q172.0,313.0 170.0,317.0 Q168.0,321.0 168.0,324.5 Q168.0,328.0 168.5,329.5 Q169.0,331.0 171.5,333.0 Q174.0,335.0 178.0,335.0 Q182.0,335.0 184.5,333.0 Q187.0,331.0 187.5,330.0 Q188.0,329.0 188.0,324.5 Q188.0,320.0 186.5,318.0 L185.0,316.0 L186.0,315.0 L187.0,314.0 L188.5,314.5 Q190.0,315.0 195.0,315.0 Q200.0,315.0 200.5,314.5 Q201.0,314.0 202.5,314.0 Q204.0,314.0 206.0,313.0 Q208.0,312.0 211.0,308.5 Q214.0,305.0 215.0,302.5 Q216.0,300.0 216.0,294.0 Q216.0,288.0 214.5,284.5 Q213.0,281.0 210.5,278.5 Z M178.0,310.0 L179.0,309.0 L181.5,311.0 L184.0,313.0 L183.5,313.5 Q183.0,314.0 183.0,317.0 Q183.0,320.0 183.5,320.5 Q184.0,321.0 184.0,322.0 Q184.0,323.0 181.5,326.0 Q179.0,329.0 178.0,329.0 Q177.0,329.0 175.0,327.0 Q173.0,325.0 173.0,323.0 Q173.0,321.0 173.5,320.5 Q174.0,320.0 174.0,318.5 Q174.0,317.0 175.5,314.0 Q177.0,311.0 178.0,310.0 Z M183.0,302.5 Q183.0,302.0 184.0,301.0 Q185.0,300.0 185.5,300.0 Q186.0,300.0 187.0,301.0 Q188.0,302.0 188.0,302.5 Q188.0,303.0 187.0,304.0 Q186.0,305.0 185.5,305.0 Q185.0,305.0 184.0,304.0 Q183.0,303.0 183.0,302.5 Z M197.5,282.5 Q199.0,281.0 201.0,281.0 Q203.0,281.0 205.0,283.5 Q207.0,286.0 206.5,287.5 Q206.0,289.0 204.5,290.5 Q203.0,292.0 201.0,292.0 Q199.0,292.0 197.0,289.5 Q195.0,287.0 195.5,285.5 Q196.0,284.0 197.5,282.5 Z"/><path fill="#6E3110" fill-rule="evenodd" d="M306.5,274.0 Q304.0,275.0 301.5,277.0 Q299.0,279.0 296.5,284.5 Q294.0,290.0 294.0,294.0 Q294.0,298.0 295.5,302.0 Q297.0,306.0 300.0,309.0 Q303.0,312.0 305.5,313.0 Q308.0,314.0 313.0,314.5 Q318.0,315.0 321.5,314.0 Q325.0,313.0 326.0,314.0 L327.0,315.0 L326.0,317.0 Q325.0,319.0 325.0,324.5 Q325.0,330.0 326.0,331.5 Q327.0,333.0 329.0,334.0 Q331.0,335.0 336.0,334.5 Q341.0,334.0 343.0,331.5 Q345.0,329.0 344.5,323.0 Q344.0,317.0 341.0,313.0 Q338.0,309.0 337.0,309.0 L336.0,309.0 L336.0,310.5 Q336.0,312.0 338.0,316.0 Q340.0,320.0 340.0,322.5 Q340.0,325.0 338.0,327.0 Q336.0,329.0 334.5,329.0 Q333.0,329.0 331.0,326.5 Q329.0,324.0 329.5,319.0 Q330.0,314.0 329.0,313.0 L328.0,312.0 L331.0,309.0 Q334.0,306.0 335.0,302.0 Q336.0,298.0 337.0,297.0 L338.0,296.0 L339.0,297.0 Q340.0,298.0 340.5,302.0 L341.0,306.0 L342.5,305.5 L344.0,305.0 L344.5,298.5 Q345.0,292.0 343.5,289.0 Q342.0,286.0 337.5,281.5 Q333.0,277.0 328.5,275.0 Q324.0,273.0 316.5,273.0 Q309.0,273.0 306.5,274.0 Z M304.0,303.0 L303.0,302.0 L304.5,300.5 L306.0,299.0 L307.5,300.5 L309.0,302.0 L308.0,303.0 Q307.0,304.0 306.0,304.0 Q305.0,304.0 304.0,303.0 Z M319.0,283.0 Q321.0,281.0 322.5,281.0 Q324.0,281.0 326.0,283.0 Q328.0,285.0 328.0,287.0 Q328.0,289.0 326.0,290.5 Q324.0,292.0 322.5,292.0 Q321.0,292.0 319.0,290.0 Q317.0,288.0 317.0,286.5 Q317.0,285.0 319.0,283.0 Z"/></g><g id="nose"><path fill="#6E3110" fill-rule="evenodd" d="M253.0,301.5 L252.0,302.0 L252.0,305.0 Q252.0,308.0 252.5,308.5 Q253.0,309.0 255.0,309.0 Q257.0,309.0 258.0,308.5 L259.0,308.0 L259.0,305.5 Q259.0,303.0 258.0,302.0 Q257.0,301.0 255.5,301.0 Q254.0,301.0 253.0,301.5 Z"/></g><g id="mouth"><path fill="#6E3110" fill-rule="evenodd" d="M229.0,339.5 Q227.0,342.0 227.0,346.5 Q227.0,351.0 227.5,351.5 Q228.0,352.0 230.5,352.0 L233.0,352.0 L235.0,347.5 Q237.0,343.0 239.5,340.5 Q242.0,338.0 245.0,336.5 Q248.0,335.0 249.5,335.0 Q251.0,335.0 251.5,334.5 Q252.0,334.0 256.0,334.0 Q260.0,334.0 260.5,334.5 Q261.0,335.0 262.5,335.0 Q264.0,335.0 268.0,337.5 Q272.0,340.0 274.5,343.0 Q277.0,346.0 277.0,347.0 Q277.0,348.0 278.0,350.0 L279.0,352.0 L281.5,352.0 Q284.0,352.0 285.0,350.5 Q286.0,349.0 286.0,347.5 Q286.0,346.0 284.5,342.5 Q283.0,339.0 280.0,336.0 Q277.0,333.0 271.5,330.5 Q266.0,328.0 262.5,328.0 Q259.0,328.0 258.5,327.5 Q258.0,327.0 256.0,327.0 Q254.0,327.0 253.5,327.5 Q253.0,328.0 249.5,328.0 Q246.0,328.0 245.5,328.5 Q245.0,329.0 242.5,329.5 Q240.0,330.0 237.5,331.5 Q235.0,333.0 233.5,334.5 Q232.0,336.0 231.5,336.0 L231.0,336.0 L231.0,336.5 Q231.0,337.0 229.0,339.5 Z"/></g><g id="accent"></g></svg>